<svg width="356" height="307" viewBox="0 0 356 307" fill="none" xmlns="http://www.w3.org/2000/svg">
<path d="M154.95 303.59C238.869 303.59 306.899 236.301 306.899 153.295C306.899 70.2893 238.869 3 154.95 3C71.0302 3 3 70.2893 3 153.295C3 236.301 71.0302 303.59 154.95 303.59Z" stroke="#4F6175" stroke-width="5"/>
<path d="M145.432 300.299C117.83 297.198 99.4616 291.674 80.8989 280.893C41.6998 258.125 15.6811 220.799 8.00399 176.32C5.32861 160.819 6.33542 134.508 10.1904 119.181C16.6949 93.3203 28.7174 71.597 47.1759 52.353C67.3283 31.3429 90.2666 17.9883 118.837 10.632C135.895 6.23987 161.095 5.14113 178.636 8.02467C192.547 10.3114 209.311 15.7324 221.715 21.955C231.183 26.7044 248.932 38.2937 251.527 41.4206C252.557 42.6616 253.028 47.4347 253.124 57.6268C253.329 79.2744 257.511 95.2397 262.977 95.2397C266.203 95.2397 268.709 88.9774 270.955 75.3064L272.936 63.2489L277.641 70.1755L282.346 77.1021L279.525 84.1528C277.238 89.8694 276.707 93.0463 276.72 100.943C276.738 112.529 277.423 115.648 279.95 115.648C284.369 115.648 288.965 107.729 289.876 98.5491L290.532 91.9303L294.094 101.628C300.165 118.161 300.484 120.303 297.717 126.019C294.632 132.39 292.756 143.799 293.728 150.276C294.643 156.379 296.404 156.791 301.178 152.016L304.523 148.671L303.788 158.91C302.135 181.958 297.489 199.664 288.253 218.113C267.434 259.702 228.739 288.947 182.982 297.676C172.326 299.709 152.503 301.093 145.432 300.299Z" fill="#ECECEC"/>
<path d="M355.54 61.4537C348.611 57.6341 333.921 59.7093 327.661 67.7382C325.996 69.9891 324.634 72.235 323.508 75.2605C320.744 75.5236 318.314 76.7951 315.766 78.1349C313.408 79.3724 310.966 80.6439 308.031 81.2578H308.008C304.057 80.3321 300.185 79.9132 296.165 79.4844C293.948 79.2506 291.659 79.007 289.275 78.6708H289.153C287.468 75.8354 285.726 73.0486 283.931 70.3301C284.768 70.8904 285.578 71.4653 286.369 72.0353C290.974 75.3384 295.374 78.4857 304.361 76.6587C306.137 76.2982 308.084 75.7428 310.248 74.9584C311.617 74.6856 312.792 74.174 314.073 73.5651C322.056 69.6578 328.871 58.657 331.548 46.4772C331.692 45.7903 331.38 44.9864 330.901 44.8256C329.243 44.2459 327.756 44.2361 326.311 44.392C318.812 45.4785 312.138 53.0884 309.81 64.0307C309.194 67.2413 308.882 70.2083 309.156 73.833C297.052 78.018 292.344 74.6417 286.924 70.7588C285.415 69.6821 283.848 68.5616 282.072 67.5775C279.239 63.4363 276.272 59.4462 273.192 55.6413C270.496 52.3138 265.791 47.4125 262.357 44.5234C266.632 44.4649 272.333 45.5467 276.223 45.001H276.231C276.969 44.9718 278.197 45.99 278.973 46.9693C279.429 47.5393 279.946 48.1434 280.551 48.5331C281.194 51.0617 282.164 52.9861 283.43 54.9641C288.191 61.9455 296.025 64.8346 303.011 62.6958C304.346 62.2427 305.677 61.6581 307.023 60.6009C307.411 60.2988 307.499 59.5924 307.198 59.1539C301.828 51.4173 293.036 46.1459 284.932 46.4334C283.506 46.4967 282.221 46.6039 280.783 47.0229C280.429 46.7257 280.095 46.3262 279.771 45.9218C279.669 45.8049 279.19 45.2056 278.535 44.6454C279.456 44.4895 280.369 44.3189 281.274 44.1387C285.571 43.2617 289.705 42.0584 293.789 40.5042C293.903 40.4604 293.998 40.3727 294.067 40.2606C296.462 40.9232 298.607 40.8891 300.942 40.5432C303.369 40.0999 305.669 39.1742 307.788 37.849C307.829 37.8782 307.875 37.9026 307.921 37.9318C315.705 42.4384 326.604 40.894 335.237 34.7553C335.724 34.4046 335.948 33.552 335.701 33.0015C334.857 31.0917 333.811 29.7324 332.708 28.5242C328.894 24.5925 323.805 22.9117 318.595 23.7448C318.964 22.6974 319.284 21.6158 319.542 20.5147C319.968 18.527 320.273 16.4613 320.177 14.0789C320.158 13.3871 319.599 12.8317 319.037 12.9389C309.096 14.8682 299.185 22.7217 294.493 33.2256C293.648 35.1548 292.933 36.9185 292.412 39.145C292.386 39.257 292.39 39.3788 292.424 39.486C283.114 42.8866 273.474 44.4748 262.183 44.4505L255.368 37.7126H255.372C255.467 37.7467 255.57 37.7662 255.676 37.7662C266.431 37.5567 277.49 31.3255 283.122 21.4794C284.137 19.667 285.008 18.0008 285.689 15.8328C285.78 15.5649 285.651 15.2239 285.396 15.0874C226.778 -2.52017 265.048 168.849 272.396 56.6934C272.713 57.0855 273.029 57.4794 273.343 57.8752C277.01 62.4899 280.51 67.3503 283.813 72.4297C284.09 74.0277 284.322 75.7474 284.493 77.399C283.391 78.3734 282.584 79.4939 281.729 80.7753C276.724 88.3803 275.473 101.817 278.082 114.201C278.23 114.903 278.804 115.468 279.261 115.371C280.846 115.049 282.071 114.299 283.193 113.417C288.912 108.609 291.388 98.3142 288.981 87.2208C288.228 84.0297 287.323 81.204 285.691 78.0908C285.585 76.9995 285.448 75.8595 285.288 74.7341C291.198 84.0833 296.469 94.1243 300.994 104.657C301.496 105.807 301.983 106.967 302.458 108.131C302.58 108.433 302.706 108.735 302.824 109.037C302.767 109.13 302.717 109.232 302.675 109.339C302.611 109.52 302.573 109.714 302.565 109.914C302.546 110.587 302.542 111.264 302.554 111.936C302.573 114.508 302.751 117.095 303.082 119.639C302.998 119.619 302.915 119.639 302.85 119.702C301.637 120.793 300.766 121.982 299.831 123.346C294.769 130.868 292.94 143.248 294.78 154.214C294.891 154.833 295.4 155.281 295.834 155.135C297.336 154.653 298.519 153.825 299.618 152.889C304.105 148.836 306.801 141.835 306.817 134.162C308.68 138.775 311.106 142.8 314 145.786C315.369 147.17 316.628 148.358 318.286 149.338C318.492 149.464 318.762 149.313 318.883 148.992C320.302 145.094 320.785 141.703 320.979 137.894C321.355 125.543 316.278 114.664 308.638 110.143C307.212 109.354 305.699 108.711 303.9 108.521C303.082 106.499 302.242 104.497 301.371 102.514C297.994 94.7966 294.214 87.3474 290.08 80.2491C292.145 80.5268 294.138 80.7362 296.07 80.9409C297.533 81.0957 298.958 81.2469 300.359 81.4176C302.924 81.7303 305.407 82.1086 307.897 82.6948C307.905 82.6948 307.912 82.6948 307.919 82.7048C307.95 82.7148 307.988 82.7194 308.022 82.7243C309.231 83.0117 310.441 83.3479 311.665 83.7571C312.008 87.4159 312.821 90.2562 313.977 93.2379C318.104 103.274 325.911 108.843 333.41 107.815C334.852 107.561 336.304 107.137 337.822 106.114C338.263 105.827 338.43 104.955 338.168 104.321C333.494 93.1794 324.972 84.3417 316.518 82.7438C315.096 82.4904 313.799 82.315 312.331 82.4758C311.81 82.3004 311.289 82.1348 310.772 81.9789C312.734 81.2968 314.491 80.3809 316.198 79.4844C318.476 78.286 320.663 77.1459 323.047 76.7903C323.055 76.9852 323.135 77.1459 323.26 77.2141C324.759 78.0521 326.135 78.4029 327.676 78.7244C329.638 79.1142 331.691 79.1288 333.783 78.8121H333.787C339.457 77.9547 346.557 75.6061 350.284 69.7211L355.524 61.4477M254.523 36.4071C254.523 36.4753 254.523 36.5484 254.535 36.6215C251.105 46.5373 251.402 45.715 254.523 36.4071Z" fill="#4F6175"/>
<path d="M133.779 298.655C133.443 298.11 132.019 297.664 130.616 297.664C126.346 297.664 107.708 292.577 98.5661 288.916C81.2203 281.971 58.5004 266.377 46.6397 253.278C37.5398 243.228 29.0424 231.033 23.2814 219.756C11.5939 196.879 7.40016 179.402 7.44965 153.782C7.49984 127.803 11.6502 109.505 22.2788 88.4047C36.7901 59.5958 64.7445 32.7076 93.2388 20.1511C98.5863 17.7946 103.21 15.6067 103.513 15.2889C103.816 14.9711 105.284 14.5748 106.774 14.4081C108.264 14.2413 109.754 13.7449 110.084 13.3049C110.413 12.8649 111.18 12.5029 111.786 12.5005C113.634 12.4935 127.156 9.46055 128.333 8.78923C128.94 8.44339 130.545 8.30365 131.9 8.4787C133.255 8.65375 134.833 8.507 135.406 8.15259C137.431 6.90158 158.264 6.60588 169.701 7.66584C182.529 8.85479 194.147 11.5338 207.316 16.34C212.11 18.0896 216.04 19.1835 216.049 18.7708C216.058 18.3582 216.431 18.5744 216.877 19.2513C217.322 19.9282 219.921 21.6138 222.651 22.9972C231.404 27.4321 248.909 39.2764 250.629 41.9281C251.816 43.757 252.472 48.8666 252.91 59.6895C253.53 75.0395 256.118 90.2756 258.105 90.2756C258.699 90.2756 258.933 90.6835 258.624 91.1819C257.77 92.5648 262.112 95.8187 263.897 95.1335C266.243 94.2335 269.663 85.2867 271.236 75.9349C272.001 71.3845 272.958 67.2803 273.362 66.8145C273.766 66.3487 275.728 68.2399 277.723 71.0173C281.273 75.9618 281.378 76.6064 279.687 83.1053C279.529 83.712 278.918 84.953 278.328 85.8631C277.156 87.6716 276.384 111.322 277.409 113.994C277.758 114.903 279.198 115.648 280.608 115.648C283.92 115.648 287.278 110.938 288.951 103.948C289.662 100.979 290.465 97.8045 290.737 96.8944C291.311 94.9704 297.41 110.974 298.365 116.913C298.726 119.156 298.368 122.819 297.558 125.187C296.758 127.524 296.075 129.685 296.039 129.988C296.004 130.292 295.55 131.212 295.03 132.033C293.916 133.789 293.03 150.626 293.902 153.43C294.596 155.657 298.239 156.014 299.54 153.981C300.025 153.223 301.214 151.985 302.182 151.23C303.755 150.003 303.907 150.53 303.612 156.194C302.81 171.572 298.557 192.409 293.861 203.967C292.335 207.722 291.355 211.229 291.683 211.759C292.01 212.289 291.852 212.723 291.33 212.723C290.808 212.723 289.246 215.081 287.859 217.963C279.244 235.856 258.306 260.377 241.956 271.719C237.709 274.665 233.613 277.832 232.855 278.756C232.097 279.68 231.476 280.087 231.476 279.661C231.476 278.879 213.745 287.427 212.723 288.703C212.42 289.081 211.675 289.418 211.068 289.452C208.448 289.598 203.898 291.363 203.898 292.233C203.898 292.755 203.153 292.897 202.243 292.547C201.333 292.198 200.588 292.356 200.588 292.897C200.588 293.439 199.72 293.917 198.658 293.96C197.596 294.003 191.515 295.176 185.145 296.567C175.944 298.576 169.533 299.152 153.977 299.371C143.205 299.522 134.116 299.2 133.779 298.655Z" fill="#FAF6F0"/>
</svg>
