<?xml version="1.0" encoding="UTF-8"?>
<svg id="Layer_2" data-name="Layer 2" xmlns="http://www.w3.org/2000/svg" viewBox="0 0 738.74 669.01">
  <defs>
    <style>
      .cls-1 {
        fill: #4f6175;
        stroke-width: 0px;
      }
    </style>
  </defs>
  <g id="Layer_1-2" data-name="Layer 1">
    <path class="cls-1" d="M738.1,482.82c-3.18-3.19-6.57-5.15-10.04-6.76-18.22-7.84-41.21-2.98-57.67,13.5-4.38,4.62-7.96,9.23-10.92,15.44-7.27.54-13.66,3.15-20.36,5.9-6.2,2.54-12.62,5.15-20.34,6.41h-.06c-10.39-1.9-20.57-2.76-31.14-3.64-5.83-.48-11.85-.98-18.12-1.67-.11,0-.22,0-.32,0-4.43-5.82-9.01-11.54-13.73-17.12,2.2,1.15,4.33,2.33,6.41,3.5,12.11,6.78,23.68,13.24,47.31,9.49,4.67-.74,9.79-1.88,15.48-3.49,3.6-.56,6.69-1.61,10.06-2.86,20.99-8.02,38.91-30.6,45.95-55.6.38-1.41-.44-3.06-1.7-3.39-4.36-1.19-8.27-1.21-12.07-.89-19.72,2.23-37.27,17.85-43.39,40.31-1.62,6.59-2.44,12.68-1.72,20.12-31.83,8.59-44.21,1.66-58.46-6.31-3.97-2.21-8.09-4.51-12.76-6.53-7.45-8.5-15.25-16.69-23.35-24.5-7.09-6.83-15.11-14.06-24.14-19.99,11.24-.12,21.88-.73,32.11-1.85h.02c1.94-.06,5.17,2.03,7.21,4.04,1.2,1.17,2.56,2.41,4.15,3.21,1.69,5.19,4.24,9.14,7.57,13.2,12.52,14.33,33.12,20.26,51.49,15.87,3.51-.93,7.01-2.13,10.55-4.3,1.02-.62,1.25-2.07.46-2.97-14.12-15.88-37.24-26.7-58.55-26.11-3.75.13-7.13.35-10.91,1.21-.93-.61-1.81-1.43-2.66-2.26-.27-.24-1.53-1.47-3.25-2.62,2.42-.32,4.82-.67,7.2-1.04,11.3-1.8,22.17-4.27,32.91-7.46.3-.09.55-.27.73-.5,6.3,1.36,11.94,1.29,18.08.58,6.38-.91,12.43-2.81,18-5.53h0c.11.06.23.11.35.17,20.47,9.25,49.13,6.08,71.83-6.52,1.28-.72,1.87-2.47,1.22-3.6-2.22-3.92-4.97-6.71-7.87-9.19-10.03-8.07-23.41-11.52-37.11-9.81.97-2.15,1.81-4.37,2.49-6.63,1.12-4.08,1.92-8.32,1.67-13.21-.05-1.42-1.52-2.56-3-2.34-26.14,3.96-52.2,20.08-64.54,41.64-2.22,3.96-4.1,7.58-5.47,12.15-.07.23-.06.48.03.7-24.48,6.98-49.83,10.24-79.52,10.19-4.44-2.58-9.11-4.81-14.01-6.51-4.22-1.46-8.57-2.52-12.85-3.48,3.26-1.07,6.58-2.56,8.94-3.84h.01c.25.07.52.11.8.11,28.28-.43,57.36-13.22,72.17-33.43,2.67-3.72,4.96-7.14,6.75-11.59.24-.55-.1-1.25-.77-1.53-8.17-3.36-15.17-4.31-23.01-4.46-13.15.09-25.3,3.99-35.13,10.6h0c-5.49-.53-11.03-.37-16.54-.12-14.58.65-29.14,1.83-43.7,3.01-1.07.09-2.15.19-3.19.42.42-1.03.69-1.68.69-1.68,1.53-3.76,3.1-7.51,4.65-11.26,1.83.76,3.89,1.04,5.88,1.27,22.18,2.5,44.74,1.59,66.66-2.69,1.42-.28,7.9-1.72,5.79-3.91-.84-.85-3.69-1.23-4.82-1.51-1.52-.38-3.07-.68-4.62-.91-6.53-.98-13.16-.81-19.73-.51-14.59.66-29.15,1.83-43.7,3.01-1.16.1-2.34.2-3.46.49,1.91-4.55,3.83-9.09,5.78-13.63,1.66.34,3.43.37,5.15.34,22.32-.22,44.61-3.87,65.84-10.79,1.38-.45,7.63-2.68,5.26-4.59-.93-.75-3.8-.77-4.95-.91-1.56-.19-3.13-.3-4.7-.34-6.6-.18-13.17.8-19.65,1.9-14.4,2.43-28.71,5.38-43.01,8.32-.49.11-.99.21-1.48.32,2.14-4.95,4.29-9.89,6.46-14.84,1.84.47,3.82.5,5.73.48,22.32-.22,44.61-3.88,65.84-10.8,1.38-.44,7.63-2.67,5.27-4.59-.94-.74-3.81-.76-4.97-.91-1.55-.18-3.12-.29-4.69-.34-6.6-.18-13.17.81-19.65,1.91-14.39,2.42-28.71,5.37-43.01,8.32-.71.14-1.41.29-2.11.48,2.6-5.86,5.23-11.73,7.88-17.58,1.78.43,3.71.46,5.56.44,22.34-.22,44.62-3.88,65.85-10.79,1.37-.46,7.63-2.68,5.26-4.59-.94-.76-3.8-.77-4.95-.91-1.56-.2-3.14-.31-4.71-.34-6.59-.18-13.16.8-19.64,1.9-14.4,2.43-28.72,5.38-43.02,8.31-.61.13-1.23.27-1.84.43,2.5-5.49,5.02-10.97,7.56-16.45,1.89.52,3.96.56,5.95.54,22.32-.22,44.61-3.88,65.84-10.8,1.37-.45,7.63-2.68,5.26-4.59-.93-.75-3.8-.76-4.96-.91-1.56-.19-3.13-.3-4.71-.34-6.59-.18-13.15.8-19.64,1.91-14.4,2.42-28.7,5.37-43.01,8.32-.74.15-1.5.3-2.23.51,1.87-4.03,3.77-8.06,5.67-12.09,1.98.44,4.11.34,6.16.18,22.26-1.72,44.25-6.87,64.96-15.2,1.35-.54,7.44-3.18,4.95-4.92-.98-.69-3.84-.52-5.01-.59-1.57-.08-3.14-.08-4.71-.02-6.59.26-13.08,1.69-19.48,3.22-14.2,3.4-28.28,7.29-42.36,11.19-.63.17-1.26.36-1.89.56,2.15-4.51,4.3-9.02,6.47-13.53,2.13.56,4.43.42,6.63.22,21.62-2,42.78-7.25,62.51-15.52,1.28-.54,7.07-3.14,4.54-4.77-1-.64-3.78-.42-4.92-.47-1.54-.05-3.08-.03-4.61.05-6.41.36-12.66,1.83-18.8,3.38-13.67,3.47-27.18,7.4-40.68,11.34-.75.22-1.51.45-2.24.72,2.44-5.04,4.89-10.07,7.34-15.09,1.85.39,3.83.29,5.72.15,20.61-1.63,40.91-6.41,59.98-14.11,1.23-.49,6.83-2.94,4.5-4.54-.92-.63-3.57-.46-4.65-.52-1.46-.08-2.92-.07-4.37-.02-6.11.27-12.09,1.59-18,3-13.1,3.16-26.09,6.77-39.08,10.38-.52.14-1.04.3-1.56.47,2.36-4.81,4.73-9.61,7.12-14.4,1.67.37,3.48.24,5.21.08,17.75-1.74,35.15-6.17,51.39-13.08,1.05-.44,5.81-2.63,3.75-3.96-.82-.52-3.11-.33-4.04-.37-1.27-.03-2.53,0-3.78.07-5.27.32-10.41,1.55-15.46,2.87-11.23,2.91-22.35,6.22-33.45,9.53-.48.14-.96.29-1.44.46,2.56-5.13,5.12-10.24,7.69-15.35,1.79.37,3.67-.05,5.44-.53,15.16-4.01,29.68-10.35,42.89-18.69.85-.55,4.71-3.13,2.74-4.01-.77-.34-2.73.14-3.54.25-1.1.13-2.19.34-3.26.57-4.53,1.03-8.82,2.83-13.04,4.7-9.36,4.14-18.57,8.6-27.78,13.07-.51.23-1.02.49-1.5.77,2.45-4.85,4.9-9.69,7.37-14.52,1.52.14,3.03-.49,4.46-1.13,11.71-5.33,22.67-12.52,32.38-21.25.62-.57,3.44-3.23,1.8-3.72-.66-.19-2.18.46-2.82.66-.86.25-1.71.56-2.54.91-3.52,1.43-6.77,3.51-9.95,5.61-7.07,4.69-13.97,9.63-20.88,14.57-.11.08-.22.17-.34.25,2.51-5.01,4.7-10.2,7.77-14.9,1.82-2.86,4.38-5.31,6.67-7.91,4.48-5.2,7.38-11.3,10.14-17.49,2.76-6.17,5.45-12.38,7.33-19.03.16-.54,0-1.15-.45-1.54-.62-.55-1.57-.49-2.11.14-4.56,5.2-8.31,10.84-11.99,16.54-3.63,5.73-7.13,11.53-8.98,18.16-.85,3.37-1.45,6.87-2.78,9.98-2.03,4.83-4.79,9.26-7.32,13.83-.16-8.45-.33-16.89-.79-25.32-.21-3.81-.5-7.65-1.44-11.33-.22-.87-.48-1.74-.79-2.58-.23-.63-.61-2.24-1.15-2.65-1.38-1.03-1.84,2.83-1.91,3.67-1.2,13-.43,26.08,2.3,38.66.3,1.38.66,2.81,1.48,3.91-1.77,3.29-5.07,9.56-8.15,15.42-.02-.79-.18-1.58-.35-2.37-2.03-10.03-4.07-20.06-6.47-30.01-1.08-4.49-2.25-8.99-4.18-13.21-.46-1-.97-1.99-1.53-2.95-.4-.71-1.2-2.55-1.95-2.96-1.89-1.02-1.6,3.61-1.51,4.62,1.37,15.56,5.15,30.94,11.16,45.43.74,1.77,1.58,3.6,3.08,4.8-1.66,3.16-3.13,5.98-4.09,7.81-1.4,2.71-2.79,5.42-4.17,8.14,0-.03,0-.06,0-.1-.11-1.2-.58-2.34-1.05-3.47-4.43-10.71-8.85-21.42-13.68-31.98-2.17-4.75-4.44-9.51-7.51-13.8-.73-1.04-1.51-2.03-2.33-2.98-.62-.71-1.91-2.6-2.83-2.91-2.34-.77-1.03,4.31-.71,5.41,4.86,16.95,12.39,33.25,22.23,48.14,1.18,1.78,2.49,3.62,4.37,4.66-2.82,5.5-5.6,11.04-8.38,16.59,0-.14,0-.27-.02-.41-.11-1.41-.64-2.75-1.17-4.06-5.01-12.51-10.04-25.02-15.5-37.35-2.46-5.55-5.05-11.11-8.55-16.11-.84-1.19-1.72-2.36-2.67-3.46-.71-.84-2.18-3.03-3.23-3.39-2.7-.88-1.24,5.06-.88,6.34,5.47,19.82,14.01,38.85,25.23,56.21,1.38,2.13,2.92,4.31,5.16,5.5-2.76,5.52-5.49,11.05-8.2,16.61-.12-1.4-.61-2.76-1.13-4.1-5-13.14-10-26.29-15.47-39.29-2.47-5.84-5.07-11.7-8.65-17.03-.85-1.28-1.76-2.51-2.73-3.71-.73-.88-2.24-3.22-3.35-3.64-2.81-1.04-1.41,5.15-1.07,6.5,5.31,20.72,13.88,40.77,25.32,59.22,1.39,2.23,2.94,4.53,5.21,5.88-2.2,4.53-4.4,9.08-6.58,13.63-.23-.7-.49-1.4-.76-2.08-5.33-13.61-10.65-27.21-16.46-40.6-2.62-6.05-5.37-12.08-9.11-17.51-.89-1.3-1.84-2.56-2.85-3.77-.75-.89-2.33-3.28-3.47-3.65-2.89-.95-1.35,5.51-.98,6.9,5.77,21.58,14.85,42.26,26.83,61.1,1.18,1.87,2.46,3.76,4.18,5.11-1.97,4.13-3.92,8.26-5.87,12.4v-.04c-.27-1.51-1-2.9-1.7-4.26-6.73-12.96-13.46-25.92-20.64-38.64-3.24-5.73-6.61-11.44-10.91-16.45-1.02-1.2-2.09-2.34-3.22-3.44-.85-.81-2.67-3.02-3.84-3.27-2.98-.64-.76,5.62-.24,6.98,8,20.84,19.21,40.45,33.11,57.92,1.59,2.01,3.33,4.06,5.6,5.15-3.03,6.51-6.04,13.04-9.02,19.59,0-.09-.02-.19-.03-.28-.27-1.51-1-2.91-1.7-4.27-6.73-12.96-13.46-25.92-20.64-38.64-3.24-5.73-6.61-11.44-10.91-16.45-1.03-1.19-2.09-2.35-3.23-3.43-.84-.82-2.66-3.03-3.83-3.28-2.98-.63-.77,5.63-.24,6.98,8,20.84,19.2,40.45,33.1,57.92,1.63,2.05,3.42,4.14,5.77,5.22-2.54,5.61-5.06,11.24-7.54,16.87-.28-.62-.6-1.24-.9-1.84-6.74-12.96-13.46-25.93-20.65-38.64-3.24-5.72-6.6-11.45-10.9-16.45-1.03-1.19-2.1-2.34-3.23-3.44-.84-.8-2.66-3.02-3.83-3.28-2.98-.63-.77,5.63-.24,6.98,7.99,20.85,19.2,40.46,33.1,57.94,1.25,1.56,2.59,3.15,4.19,4.3-2.47,5.65-4.94,11.3-7.36,16.96v-.05c-.27-1.51-1-2.9-1.7-4.26-6.72-12.96-13.46-25.93-20.64-38.64-3.24-5.73-6.61-11.44-10.91-16.45-1.02-1.2-2.09-2.35-3.23-3.44-.83-.81-2.66-3.03-3.83-3.27-2.98-.65-.77,5.61-.24,6.97,8,20.84,19.21,40.45,33.11,57.93,1.62,2.04,3.4,4.13,5.74,5.21-1.81,4.27-3.61,8.54-5.39,12.81-.42-.74-.89-1.44-1.36-2.14-8.27-12.05-16.53-24.1-25.21-35.83-3.91-5.29-7.95-10.56-12.83-15-1.16-1.06-2.36-2.08-3.62-3.02-.94-.7-3.02-2.68-4.21-2.78-3.03-.28-.07,5.68.61,6.95,10.49,19.72,24.01,37.81,39.93,53.46,1.36,1.35,2.83,2.71,4.48,3.64-1.65,4-3.29,8-4.92,11.99,0,0-.46,1.18-.53,1.36-.42-.77-.92-1.51-1.42-2.25-8.26-12.04-16.52-24.09-25.2-35.83-3.92-5.29-7.95-10.55-12.83-15-1.16-1.06-2.36-2.07-3.62-3.02-.94-.69-3.02-2.67-4.21-2.78-.83-.07-1.21.32-1.3.95-.3.02-.58.08-.84.16-1.88.63-2.63,2.46-3.02,3.77-3.13,10.41-.79,21.68,1.26,31.62.44,2.16.89,4.36,1.62,6.52-16.13-15.08-32.05-35.05-44.13-56.77,2.03-.59,4.2-1.92,5.98-3.01l.86-.51c5.07-3.03,9.53-7.2,12.9-12.05,5.01-7.17,7.79-16.03,7.84-24.92.01-1.65-.17-3.68-1.71-4.91-1.98-1.58-4.7-.46-5.6-.09-7.47,3.08-14.11,8.55-18.65,15.38-3.73,5.57-6.12,12.16-6.96,18.92-.26-.27-.53-.51-.82-.76-6.22-13.11-10.87-26.63-13.21-39.91.41-.48.74-1.06,1.08-1.53,3.6-4.88,6.62-10.14,9-15.68.55-1.26.99-2.9-.02-3.85-.25-.24-.56-.38-.89-.46,7.89-12.46,11.73-27.35,10.65-41.94-.2-2.69-.58-5.51-2.07-7.97-1.43-2.39-4.4-4.64-7.76-4.27-3.21.34-5.43,2.81-6.94,5.06-.69-2.82-2.04-5.49-2.42-6.21-1.78-3.36-4.6-5.63-7.77-6.22-2.88-.54-6.05.32-8.68,2.35-2.94,2.26-5.05,5.83-5.94,10.07-.83,3.92-.56,7.9-.2,11.29.19,1.77.44,3.53.73,5.27-3.79-4.57-9.16-8.33-15.3-10.57-4.26-1.55-7.81-1.61-10.62-.17-2.93,1.52-4.9,4.81-5.01,8.41-.08,2.93.97,6.03,3.05,8.97,1.23,1.74,3.53,4.46,5.57,6.67-1.2-.08-2.39-.1-3.58-.07-1.66.05-3.62.19-5.49.9-2.1.81-3.69,2.19-4.5,3.91-1.18,2.53-.56,5.8,1.57,8.32,1.77,2.08,4.13,3.37,6.6,4.63,9.88,5.01,20.25,9.18,30.89,12.42.15.85.54,1.67,1.06,2.37.91,1.21,2.19,2.12,3.46,2.96,2.5,1.66,5.12,3.14,7.82,4.45.74.36,2.07,1.23,3.16,1.62,2.15,12.08,6.19,24.34,11.55,36.32-1.64-.88-3.35-1.6-5.03-2.32-8.61-3.66-18.38-7.83-28.46-7.17-1.26.08-3.07.36-4.02,1.83-.7,1.09-.73,2.6-.08,3.97.51,1.06,1.28,1.83,2.1,2.61,6.47,6.16,13.22,10.54,20.07,13.04,4.46,1.63,8.98,2.45,13.44,2.45,1.56,0,3.1-.1,4.58-.3.81-.11,1.6-.25,2.37-.4.16-.05.34-.07.54-.11.14-.01.3-.05.45-.07.18.25.39.5.62.71.24.21.49.37.75.5,12.09,22.11,28.16,42.5,44.49,57.96-21.53-12.3-43.35-21.89-64.63-28.42-1.19-3.61-2.97-6.97-5.3-9.88-.81-1.02-1.95-2.16-3.62-2.01-2.17.19-3.5,2.48-3.95,3.22-.86,1.46-1.61,2.97-2.27,4.52-6.61-1.59-13.14-2.86-19.59-3.82-5.27-.77-10.6-1.36-16.01-1.76-3.2-4.65-6.2-9.63-8.99-14.91-6.89-13.07-12.91-26.7-18.54-40.35,0,0-.01-.02-.02-.04-3.36-8.18-6.59-16.36-9.78-24.45l-.22-.56c-1.25-3.19-2.56-6.36-3.89-9.5.04-.01.08-.01.12-.03l.16-.02c2.07-.48,4.36-1.89,6.19-3.01l.77-.46c4.56-2.75,8.52-6.32,11.47-10.36,4.37-5.98,6.67-13.1,6.45-20.04-.03-1.3-.26-2.87-1.7-3.71-1.86-1.1-4.32-.03-5.13.32-6.75,2.97-12.67,7.71-16.63,13.38-3.12,4.43-5.09,9.52-5.75,14.65-8.41-18.67-18.12-36.57-29.02-53.6.06-.03.13-.05.19-.08l.12-.07c1.63-.88,3.13-2.76,4.34-4.25l.5-.62c3.02-3.69,5.24-8.11,6.44-12.8,1.79-6.96,1.4-14.69-1.11-21.76-.46-1.31-1.18-2.88-2.69-3.48-1.97-.76-3.73.81-4.32,1.32-4.82,4.33-8.33,10.32-9.87,16.89-1.1,4.67-1.21,9.7-.36,14.63-8.18-12-16.97-23.52-26.35-34.55,5.28-9.64,11.37-17.99,16.99-24.72,3.93-4.71,8.1-9.23,12.44-13.57.09.1.17.2.25.29.12.13.24.26.32.37.44.57.91,1.11,1.4,1.64.92,1,1.91,1.96,2.99,2.85,3.07,2.57,6.66,4.65,10.66,6.14,6.15,2.3,13.31,3.29,21.28,2.93,1.01-.03,1.98-.1,2.93-.51,1.23-.53,2.08-1.55,2.22-2.68.18-1.51-.9-2.75-1.74-3.54-6.58-6.25-15.68-9.13-23.71-11.68-2.86-.9-5.82-1.84-8.98-1.89-.45-.01-.9,0-1.34.04.02-.04.05-.08.07-.11,10.64-9.97,22.09-19.15,33.53-28.03.35.1.71.18,1.02.28,5.85,1.85,11.91,3.04,18.04,3.55,1.4.11,3.13.02,3.75-1.21.16-.31.21-.63.18-.96,14.56,3.49,30.26,2.48,44.18-3.01,2.56-1.01,5.2-2.23,7.16-4.37,1.9-2.07,3.19-5.51,1.82-8.52-1.31-2.88-4.4-4.18-7.05-4.89,2.55-1.51,4.74-3.58,5.33-4.16,2.74-2.68,4.1-6,3.72-9.12-.35-2.85-2.15-5.52-4.93-7.34-3.1-2.04-7.23-2.9-11.64-2.42-4.07.43-7.88,1.91-11.08,3.28-1.67.72-3.31,1.49-4.93,2.3,3.32-4.92,5.36-11.07,5.69-17.46.22-4.43-.8-7.74-3.06-9.91-2.37-2.26-6.18-3.07-9.72-2.07-2.89.82-5.6,2.75-7.84,5.59-1.33,1.67-3.28,4.65-4.82,7.22-.29-1.13-.63-2.25-1.02-3.34-.55-1.53-1.28-3.3-2.55-4.82-1.42-1.7-3.25-2.76-5.18-2.98-2.82-.32-5.83,1.26-7.65,4.02-1.49,2.27-2.04,4.86-2.51,7.55-1.9,10.71-2.83,21.62-2.76,32.5-.79.4-1.48,1.02-2,1.71-.91,1.22-1.41,2.69-1.84,4.12-.86,2.84-1.52,5.73-1.98,8.64-.15,1-.81,3.08-.57,4.19-9.4,7.31-18.8,14.82-27.75,22.82,1.22-3.11,2.04-6.36,2.37-9.63.76-7.15-.69-14.61-4.08-20.97-.41-.76-1.65-3.07-3.92-3.18-1.75-.07-3.04,1.17-3.97,2.27-5.05,5.93-8.17,13.41-8.81,21.05-.43,5.17.26,10.51,2.03,15.46l.3.83c.69,2.01,1.56,4.5,2.9,6.09l.11.12c.06.07.12.13.19.19-3.99,4.06-7.84,8.26-11.49,12.64-5.54,6.64-11.54,14.82-16.8,24.26-11.56-13.4-23.98-26.05-37.21-37.86-.06-.22-.14-.44-.23-.64.09-.12.2-.24.28-.34.14-.15.25-.31.36-.41.53-.59,1.05-1.19,1.54-1.82.92-1.16,1.78-2.41,2.57-3.72,2.24-3.77,3.83-7.96,4.71-12.49,1.35-6.93,1.04-14.67-.89-22.99-.24-1.06-.52-2.07-1.15-2.98-.82-1.19-2.12-1.86-3.39-1.79-1.73.12-2.87,1.52-3.58,2.56-5.64,8.2-7.05,18.37-8.3,27.34-.44,3.2-.91,6.51-.36,9.84,0,.04.02.07.03.11-9.17-7.76-18.71-15.11-28.59-22.08-.17-1.12-.78-2.59-1-3.37-.78-2.85-1.74-5.65-2.91-8.37-.59-1.39-1.25-2.78-2.29-3.9-.59-.63-1.34-1.17-2.16-1.49-1.13-10.82-3.24-21.57-6.3-32.01-.76-2.62-1.59-5.13-3.32-7.23-2.11-2.55-5.27-3.79-8.04-3.17-1.89.43-3.6,1.68-4.83,3.52-1.09,1.65-1.62,3.49-2,5.07-.28,1.13-.49,2.27-.65,3.43-1.81-2.39-4.08-5.14-5.58-6.65-2.54-2.58-5.44-4.21-8.4-4.71-3.63-.62-7.34.6-9.45,3.11-2.01,2.39-2.66,5.8-1.96,10.17,1.03,6.33,3.73,12.21,7.57,16.75-1.7-.63-3.42-1.22-5.15-1.75-3.33-1.03-7.28-2.08-11.38-2.07-4.43,0-8.44,1.3-11.3,3.66C1.53,42.6.04,45.46,0,48.33c-.03,3.14,1.67,6.29,4.69,8.66.65.51,3.06,2.34,5.75,3.56-2.56.99-5.48,2.62-6.47,5.62-1.04,3.14.63,6.43,2.74,8.28,2.18,1.91,4.94,2.83,7.59,3.56,14.44,3.96,30.16,3.27,44.25-1.78.01.33.1.65.29.93.74,1.16,2.48,1.07,3.86.8,6.03-1.17,11.92-3.01,17.54-5.47.51-.22,1.12-.42,1.66-.69,8.77,6.18,17.27,12.68,25.47,19.51-4.79-1.28-9.83-1.76-14.75-1.34-8.06.66-16.02,3.72-22.41,8.6-.76.58-3.08,2.35-2.74,4.77.25,1.86,1.88,2.96,3.28,3.72,7.54,4.09,16.42,5.85,25.01,4.96,5.79-.59,11.57-2.43,16.7-5.3l.87-.48c2.07-1.14,4.67-2.57,6.16-4.31l.07-.08c13,11.68,25.2,24.18,36.55,37.43-7.28,13.69-12.85,29.83-13.35,47.56-.44,15.55,3.34,31.16,10.55,45.05-4.3-2.15-9.02-3.53-13.79-3.98-7.34-.7-14.97.74-21.5,4.09-.79.4-3.16,1.62-3.26,3.83-.07,1.71,1.19,2.96,2.33,3.86,6.07,4.89,13.74,7.91,21.58,8.5,5.29.41,10.77-.3,15.85-2.05l.85-.29c1.66-.55,3.65-1.22,5.21-2.15,3.54,4.9,7.55,9.45,11.99,13.56,21.23,19.68,40.66,27.42,64.77,25.8,5.54,13.41,11.47,26.78,18.25,39.65,2.48,4.71,5.14,9.2,7.97,13.45-8.36-.49-16.89-.53-25.61-.11.09-.34.13-.7.15-1.08v-.18c0-2.25-.78-4.94-1.4-7.1l-.26-.9c-1.5-5.35-3.87-10.28-6.86-14.28-4.41-5.91-10.27-9.94-16.49-11.34-1.16-.27-2.61-.4-3.64.89-1.36,1.67-.91,4.47-.77,5.38,1.25,7.67,4.27,14.9,8.5,20.32,3.07,3.95,6.83,7.02,10.9,8.93-11.92,1.02-24.21,2.85-36.88,5.52v-.07c-.5-2.21-2.19-4.63-3.54-6.57l-.55-.82c-3.29-4.82-7.72-9.01-12.8-12.11-7.52-4.59-16.69-6.96-25.8-6.66-1.7.05-3.78.31-4.97,1.85-1.55,2-.31,4.61.09,5.47,3.43,7.16,9.26,13.41,16.41,17.58,4.33,2.52,9.2,4.32,14.28,5.3-12.41,3.23-25.19,7.21-38.38,11.95-.85-.5-1.85-.95-2.39-1.27-2.58-1.53-5.27-2.9-8.05-4.07-1.41-.6-2.87-1.17-4.42-1.27-.88-.05-1.8.06-2.62.39-8.49-7.03-17.65-13.35-27.27-18.81-2.41-1.38-4.79-2.63-7.53-2.97-3.34-.41-6.5.82-8.07,3.14-1.06,1.59-1.41,3.64-.99,5.8.38,1.92,1.3,3.6,2.14,5,.61,1,1.26,1.97,1.97,2.91-3.01-.5-6.6-.95-8.76-1.03-3.67-.15-6.92.64-9.42,2.28-3.06,2.01-4.88,5.38-4.63,8.61.25,3.08,2.19,5.98,5.81,8.65,5.23,3.86,11.35,6.28,17.35,6.96-1.68.7-3.33,1.43-4.97,2.22-3.13,1.51-6.74,3.41-9.7,6.19-3.2,2.99-5.18,6.63-5.58,10.26-.36,3.26.59,6.32,2.6,8.41,2.2,2.29,5.67,3.41,9.54,3.08.83-.07,3.87-.38,6.68-1.32-1.15,2.44-2.1,5.59-.69,8.42,1.48,2.96,5.01,4.2,7.85,4.11,2.93-.09,5.59-1.29,8.03-2.55,13.25-6.9,24.13-18,30.74-31.15.25.23.53.41.88.48,1.36.33,2.55-.91,3.35-2.03,3.54-4.91,6.5-10.21,8.81-15.78.32-.74.83-1.6.92-2.41,14.27-5.11,28.05-9.31,41.39-12.63-.08.1-.17.19-.24.29-2.24,2.73-3.51,5.86-4.75,8.91-3.45,8.54-7.37,18.21-6.36,28.02.13,1.24.48,2.98,2.02,3.85,1.13.64,2.69.61,4.07-.08,1.05-.53,1.83-1.32,2.59-2.14,6.1-6.55,10.37-13.3,12.68-20.08,1.51-4.41,2.2-8.85,2.05-13.19-.06-1.51-.21-3.01-.48-4.45-.13-.78-.3-1.56-.49-2.3-.04-.15-.08-.32-.12-.51-.03-.14-.06-.3-.09-.44.21-.16.42-.33.6-.53,12.9-2.77,25.37-4.67,37.47-5.71-1.47,2.03-2.59,4.42-3.67,6.74-3.63,7.74-7.73,16.51-8.51,26.32-.1,1.24-.13,3.02.79,4.16.68.83,1.73,1.1,2.77.68.8-.33,1.44-.95,2.09-1.62,5.11-5.29,9-11.13,11.59-17.35,1.68-4.05,2.81-8.28,3.36-12.57.19-1.5.31-3,.34-4.46.03-.79.03-1.58.01-2.34v-.18c9.85-.53,19.44-.47,28.82.17,10.26,14.72,22.53,26.45,36.3,34.66-2.66.33-5.21,1.24-7.69,2.12-7.82,2.8-16.67,5.97-23.37,12.27-.85.79-1.97,2.02-1.89,3.48.06,1.08.78,2.03,1.91,2.48.88.35,1.8.38,2.76.38,7.57-.02,14.44-1.28,20.44-3.76,3.92-1.62,7.47-3.76,10.58-6.37,1.08-.91,2.1-1.88,3.04-2.87.51-.54.98-1.08,1.45-1.63.08-.13.2-.25.32-.38.09-.1.18-.21.28-.31.25.05.51.08.78.07.44,0,.86-.12,1.25-.32.29.14.57.26.86.39,13.14,5.83,27.03,8.5,41.15,7.99-3.99,2.73-7.49,6.02-10.32,9.75-42.99,3.28-84.26,18.38-118.37,44.33-46.06,31.22-71.55,92.55-80.19,168.84-2.93,15.02-4.41,27.94,12.48,25.52,8.43-1.22,17.2-1.92,25.69-2.59,27.52-2.35,55.81-6.19,82.7-11.32,66.19-13.39,129.17-64.57,150.82-127.92,5.18-15.16,9.39-34.81,11.46-50.97,2.1-13.23,3.11-21.8,3.28-27.31.6.87,1.25,1.69,1.93,2.47,17.68,30.08,25.57,68.78,20.62,99.15-.29.28-.54.62-.7.99-.56,1.26-1.09,2.55-1.58,3.84h0c-19.49.75-40.21,9.32-53.32,23.35-2.64,2.87-4.94,5.52-7.05,9.02-.28.44-.14,1.02.31,1.29,5.53,3.14,10.59,4.27,16.43,4.8,13.69.84,27.23-4.39,37.39-13.44v.02c-2.22,18.19.41,36.51,8.36,50.65,2.28,3.98,4.44,7.47,7.75,10.95.4.45,1.18.42,1.72-.07,6.43-6.04,10.2-12.02,13.58-19.1,10.35-23.16,6.26-48.86-8.94-64.94-3-3.01-6.33-5.81-10.82-7.96,2.62-17.27,1.26-37.05-3.57-56.42l11.54,3.96c1.29,3.2,2.85,5.89,4.62,8.8,3.28,5.3,7.46,10.18,12.26,14.53-1.49,4.49-1.89,8.73-1.86,13.42.67,19.01,12.93,36.61,29.95,44.78,3.31,1.5,6.78,2.77,10.9,3.31,1.19.17,2.27-.81,2.22-2.01-.67-15.2-6.57-31.3-16.08-43.98,5.45,2.14,11.06,3.67,16.63,4.48,1.19.16,2.27-.82,2.22-2.02-.12-4.14-1.05-7.73-2.21-11.17-6.44-17.75-22.73-31.7-41.58-34.26-5.56-.59-10.54-.51-16.22,1.24l-13.29-4.56c-1.53-5.66-3.37-11.28-5.48-16.78-2.11-5.49-4.5-10.86-7.16-16.03,4.46,3.09,9.17,5.08,12.61,6.25,3.81,1.29,7.73,2.28,11.6,3.16.03,0,.07.02.11.02,1.26.29,2.52.57,3.76.85,5.12,1.13,10.41,2.3,15.4,4.03,16.5,5.71,30.41,17.76,41.85,28.8,10.55,10.19,20.59,20.98,30.02,32.3.73,3.28,1.34,6.81,1.79,10.2-2.9,2-5.02,4.3-7.27,6.93-13.16,15.61-16.45,43.19-9.59,68.61.39,1.44,1.9,2.6,3.1,2.4,4.17-.66,7.39-2.2,10.34-4.01,15.04-9.87,21.55-31,15.22-53.77-1.98-6.55-4.36-12.35-8.65-18.74-.28-2.24-.64-4.58-1.06-6.89,15.54,19.19,29.4,39.8,41.3,61.42,1.32,2.36,2.6,4.74,3.85,7.13.32.62.65,1.24.96,1.86-.15.19-.28.4-.39.62-.17.37-.27.77-.29,1.18-.05,1.38-.06,2.77-.03,4.15.05,5.28.52,10.59,1.39,15.81-.22-.04-.44,0-.61.13-3.19,2.24-5.48,4.68-7.94,7.48-13.31,15.44-18.12,40.85-13.28,63.36.29,1.27,1.63,2.19,2.77,1.89,3.95-.99,7.06-2.69,9.95-4.61,11.8-8.32,18.89-22.69,18.93-38.44,4.9,9.47,11.28,17.73,18.89,23.86,3.6,2.84,6.91,5.28,11.27,7.29.54.26,1.25-.05,1.57-.71,3.73-8,5-14.96,5.51-22.78.99-25.35-12.36-47.68-32.45-56.96-3.75-1.62-7.73-2.94-12.46-3.33-2.15-4.15-4.36-8.26-6.65-12.33-8.88-15.84-18.82-31.13-29.69-45.7,5.43.57,10.67,1,15.75,1.42,10.9.9,20.98,1.74,31.1,3.6.02,0,.04,0,.06.02.08.02.18.03.27.04,3.18.59,6.36,1.28,9.58,2.12.9,7.51,3.04,13.34,6.08,19.46,10.85,20.6,31.38,32.03,51.1,29.92,3.79-.52,7.61-1.39,11.6-3.49,1.16-.59,1.6-2.38.91-3.68-12.29-22.87-34.7-41.01-56.93-44.29-3.74-.52-7.15-.88-11.01-.55-1.37-.36-2.74-.7-4.1-1.02,5.16-1.4,9.78-3.28,14.27-5.12,5.99-2.46,11.74-4.8,18.01-5.53.02.4.23.73.56.87,3.94,1.72,7.56,2.44,11.61,3.1,5.16.8,10.56.83,16.06.18h.01c14.91-1.76,30.44-8.54,43.38-18.66h0c2.8-2.19,5.48-4.54,8.01-7.03,1.03-1.03,1.14-2.88.2-3.78ZM274.58,215.84c-1.22-1.73-2.66-4.42-2.57-7.41.08-2.67,1.48-5.09,3.57-6.16,2.09-1.1,4.92-.97,8.42.31,8.13,2.96,14.77,8.77,17.76,15.52,1.45,5.92,3.44,11.72,5.94,17.29-5.65-9.04-12.29-18.35-21.81-24.41-.41-.26-.97-.14-1.24.26s-.15.94.26,1.2c9.96,6.35,16.76,16.5,22.62,26.03-1.04-1.22-2.15-2.36-3.33-3.45-2.09-1.93-4.39-3.65-6.83-5.11-4.63-2.77-9.9-4.64-15.3-5.47-2.14-2.05-5.87-6.32-7.49-8.6ZM308.47,246.17c-.17.32-.37.61-.6.9-7.47-6.6-16.55-11.35-26.33-13.77-.48-.12-.97.16-1.1.63-.12.47.17.94.65,1.06,9.49,2.35,18.3,6.96,25.56,13.35-1.07.98-2.24,1.9-2.86,3.13-10.34-3.17-20.41-7.25-30.01-12.11-2.21-1.12-4.32-2.27-5.76-3.97-1.22-1.44-2.07-3.72-1.2-5.57.44-.93,1.32-1.76,2.47-2.31.18-.08.36-.16.55-.23,1.5-.57,3.16-.69,4.59-.73,2.28-.06,4.56.08,6.82.41,5.2.76,10.26,2.53,14.71,5.18,4.56,2.73,8.6,6.46,11.69,10.79.23.32.51.69.84,1.12.16.21.34.45.52.69-.14.5-.31.98-.54,1.43ZM314.87,233.56c.17,2.19.45,4.38.85,6.53-.41-.18-.84-.32-1.28-.41-3.43-12.77-4.29-26.36-2.5-39.43.06-.48-.28-.92-.78-.99-.49-.06-.94.28-1,.76-1.76,12.87-1,26.26,2.21,38.89-3.51-6.85-6.23-14.11-8.04-21.57-.98-4.02-1.69-8.1-2.13-12.2-.35-3.19-.6-6.92.15-10.49.76-3.62,2.52-6.66,4.97-8.54,1.99-1.54,4.43-2.22,6.51-1.82,2.31.43,4.51,2.24,5.89,4.84,1.49,2.82,2.89,6.81,2.43,8.94-.18.9-.74,1.92-1.27,2.91-.35.62-.7,1.26-.98,1.91-.76,1.77-1.44,3.59-2.04,5.45-2.62,8.05-3.66,16.78-2.99,25.22ZM329.76,208.88c-.49-.05-.92.31-.97.79-1.11,11.38-4.23,22.79-9.1,33.26-.26-.21-.51-.42-.77-.63-.68-2.92-1.14-5.92-1.38-8.94-.63-8.11.36-16.5,2.88-24.24.58-1.77,1.24-3.53,1.96-5.23.24-.53.54-1.09.87-1.69.62-1.15,1.27-2.34,1.53-3.6t0-.03c.18-.11.35-.27.46-.47.28-.5.58-1.01.88-1.5,1.19-1.98,3.07-4.65,5.63-4.92,2.17-.23,4.16,1.34,5.15,3,1.21,2,1.53,4.46,1.71,6.83,1.11,15.06-3.2,30.43-11.93,42.91-.41.2-.82.38-1.27.49-1.46.35-2.96-.16-4.26-.94,5.04-10.72,8.28-22.44,9.41-34.14.05-.48-.32-.91-.81-.95ZM334.97,313.26c-2.08.46-4.26.67-6.49.68-4.21,0-8.48-.78-12.7-2.32-6.55-2.39-13.04-6.62-19.28-12.56-.68-.63-1.27-1.23-1.6-1.92-.29-.6-.31-1.28-.06-1.68.3-.47,1-.67,1.68-.76.22-.03.45-.05.64-.07,9.57-.6,19.07,3.45,27.46,7.01,2.61,1.12,5.32,2.27,7.6,3.98.27.18.53.39.78.6.7.59,1.51,1.38,2.24,2.38-.03.46-.04.92-.05,1.38-.35-.14-.7-.3-1.05-.43-8.89-3.75-18.02-6.94-27.25-9.51-.46-.14-.95.15-1.08.65-.13.5.16.99.64,1.13,9.79,2.72,19.47,6.16,28.85,10.2.04.38.11.77.21,1.15-.2.03-.38.07-.54.09ZM339.71,314.56h-.02c-.37-.12-.52-.72-.58-1.06,0-.03-.02-.06-.02-.09-.41-2.4.26-4.48.98-6.72.45-1.25.99-2.47,1.59-3.66.62-1.25,1.32-2.46,2.07-3.63.8-1.25,1.65-2.45,2.56-3.61,3.85-4.91,8.61-9.12,13.16-13.01.39-.33.43-.91.11-1.31-.31-.4-.89-.44-1.26-.12-4.62,3.96-9.45,8.24-13.4,13.27-3.48,4.43-5.89,8.98-7.23,13.6-.03-.08-.08-.17-.15-.25.5-7.17,2.88-14.23,6.8-20.11,4.31-6.47,10.58-11.65,17.66-14.56.7-.3,1.31-.47,1.82-.54.68-.1,1.21,0,1.57.31.74.58.83,1.93.82,3.03-.02,4.21-.7,8.42-1.95,12.41-1.26,4-3.1,7.79-5.46,11.19-3.2,4.6-7.43,8.54-12.24,11.42l-.87.53c-1.59.97-3.2,1.99-4.97,2.6-.26.1-.69.37-.99.31ZM302.31,53.28c.89,1.94-.04,4.27-1.36,5.7-1.59,1.74-3.9,2.79-6.16,3.69-14.36,5.67-30.68,6.38-45.51,2.12-.32-.32-.62-.65-.86-1.04-.79-1.24-.75-2.79-.38-4.24,12,1.39,24.42.79,36.19-1.76.48-.1.79-.57.68-1.04-.1-.48-.58-.76-1.06-.66-11.46,2.47-23.54,3.08-35.24,1.77.13-.3.25-.6.38-.9,2.65-1.53,5.44-2.88,8.32-4.03,7.73-3.08,16.21-4.74,24.53-4.78,1.91-.01,3.83.06,5.71.21.58.06,1.23.17,1.91.29,1.31.22,2.67.46,3.98.32h.03c.17.13.37.23.6.28.58.1,1.16.22,1.73.35,2.3.5,5.47,1.43,6.51,3.72ZM280.21,29.96c3.01-1.3,6.58-2.68,10.28-3.08,3.77-.41,7.27.3,9.85,1.99,2.11,1.38,3.51,3.43,3.75,5.49.29,2.28-.82,4.88-2.94,6.95-2.29,2.26-5.77,4.78-7.99,5.01-.93.1-2.1-.1-3.22-.29-.72-.13-1.45-.26-2.17-.31-1.95-.17-3.95-.25-5.94-.23-8.66.04-17.49,1.76-25.53,4.98-2.09.83-4.14,1.77-6.12,2.8.05-.44.06-.88.01-1.32,11.43-7.11,24.44-12.09,37.75-14.45.48-.09.81-.54.72-1.02-.08-.47-.55-.79-1.04-.7-13.1,2.32-25.94,7.15-37.3,14.01,5.62-5.37,11.89-10.12,18.62-14.09,3.63-2.15,7.4-4.07,11.27-5.74ZM254.56,33.09c1.29-5.15,1.53-10.61.7-15.88,1.35-2.63,4.39-7.4,6.12-9.6,1.32-1.67,3.51-3.84,6.46-4.67,2.63-.74,5.42-.19,7.1,1.42,1.7,1.61,2.44,4.27,2.25,7.91-.43,8.46-4.08,16.41-9.77,21.27-5.34,3.16-10.4,6.8-15.08,10.83,7.11-8.02,14.19-17.05,17.22-27.75.13-.46-.15-.95-.63-1.08-.47-.13-.97.16-1.1.62-3.17,11.19-11.02,20.62-18.55,29,.87-1.34,1.65-2.73,2.35-4.15,1.25-2.54,2.25-5.2,2.93-7.92ZM238.17,14.09c.43-2.4.92-4.71,2.14-6.57,1.03-1.58,3-3.06,5.07-2.82,1.05.11,2.12.68,3.01,1.58.13.14.26.28.39.44,1,1.22,1.63,2.72,2.1,4.04.75,2.09,1.3,4.26,1.67,6.46.84,5.06.64,10.3-.6,15.25-1.28,5.07-3.7,9.97-6.99,14.17-.24.31-.52.69-.84,1.13-.15.22-.33.45-.52.69-.52.02-1.05.02-1.56-.06-.36-.06-.71-.16-1.05-.28,4.18-8.97,6.06-18.86,5.45-28.69-.02-.48-.45-.85-.94-.82-.5.03-.87.44-.84.93.59,9.53-1.25,19.13-5.29,27.84-1.28-.69-2.53-1.49-3.91-1.7-.05-10.57.88-21.18,2.71-31.59ZM196.32,96.54c2.84.06,5.65.94,8.38,1.8,7.82,2.48,16.67,5.28,22.93,11.21.13.13.27.27.4.42.42.45.79.99.73,1.47-.05.42-.46.84-1,1.08-.63.27-1.36.32-2.19.36-7.7.33-14.58-.62-20.47-2.82-3.78-1.41-7.17-3.36-10.07-5.79-1.54-1.29-2.92-2.7-4.1-4.2-.09-.1-.19-.23-.32-.36.29-.21.56-.42.81-.65,8.76,2.73,17.41,6.05,25.71,9.89.4.19.89.03,1.08-.38.2-.39.02-.88-.38-1.06-8.13-3.76-16.57-7.02-25.17-9.74.26-.31.51-.63.75-.95,1.08-.24,2.09-.29,2.91-.28ZM184.47,92.82l-.3-.85c-1.66-4.69-2.33-9.74-1.91-14.64.3-3.62,1.19-7.2,2.6-10.57,1.42-3.38,3.36-6.56,5.74-9.37.62-.73,1.45-1.57,2.3-1.54.42.02.83.26,1.25.71.32.34.64.81.96,1.41,3.21,6.02,4.59,13.08,3.86,19.85-.48,4.66-1.97,9.25-4.27,13.4-.75,1.34-1.59,2.64-2.51,3.87-.09.03-.17.05-.25.07.32-.7.61-1.42.85-2.16h.01c1.17-3.3,1.81-6.99,1.91-11.03.16-5.62-.73-11.24-1.66-16.54-.08-.43-.5-.72-.95-.64-.43.07-.74.49-.67.93.92,5.21,1.8,10.75,1.66,16.22-.03,1.29-.13,2.59-.29,3.88-.15,1.2-.35,2.41-.64,3.61-.26,1.13-.59,2.25-.99,3.33-.49,1.21-.96,2.36-1.67,3.38,0,.01-.01.01-.01.01-.41.62-.9,1.18-1.54,1.69-.12.09-.28.21-.46.29,0,0,0,0-.02,0-.18.09-.36.13-.53.06-.25-.11-.39-.56-.52-.78-.87-1.43-1.4-3.03-1.95-4.6ZM27.02,23.49c-.58-3.6-.14-6.33,1.38-8.11,1.5-1.78,4.21-2.63,6.9-2.18,3.02.51,5.44,2.43,6.93,3.94,1.96,2.01,5.51,6.42,7.13,8.88-.24,5.33.59,10.74,2.44,15.72.97,2.62,2.25,5.16,3.77,7.56.85,1.33,1.78,2.63,2.79,3.87-8.39-7.52-17.23-16.05-21.61-26.83-.18-.45-.7-.67-1.16-.49s-.68.69-.5,1.13c4.18,10.31,12.2,18.52,20.15,25.73-5.1-3.5-10.52-6.57-16.18-9.14-6.18-4.21-10.68-11.72-12.04-20.08ZM6.38,54.95c-2.34-1.84-3.72-4.3-3.69-6.6.02-2.07,1.19-4.26,3.14-5.86,2.38-1.96,5.77-3.04,9.57-3.04s7.42.98,10.56,1.95c4.02,1.24,7.98,2.74,11.82,4.48,7.13,3.22,13.89,7.27,20.05,12-12.04-5.59-25.33-9-38.6-9.9-.5-.03-.93.33-.97.82-.03.48.35.89.84.93,13.48.91,26.96,4.45,39.09,10.28,0,.44.06.88.16,1.31-2.08-.81-4.22-1.52-6.39-2.12-8.34-2.33-17.31-3.08-25.92-2.19-1.98.2-3.96.49-5.88.87-.7.13-1.42.34-2.12.55-1.1.31-2.23.63-3.17.63-2.23.02-5.96-2.12-8.49-4.11ZM61.25,71.55c-.2.41-.46.77-.74,1.13-14.28,5.84-30.58,6.89-45.48,2.81-2.34-.65-4.75-1.44-6.52-3-1.47-1.28-2.65-3.49-1.98-5.52.79-2.39,3.84-3.66,6.07-4.4.55-.19,1.12-.37,1.68-.54.22-.07.41-.19.57-.34t.02-.01c1.32.01,2.65-.38,3.93-.74.66-.2,1.29-.38,1.87-.49,1.85-.35,3.75-.64,5.64-.83,8.28-.86,16.9-.13,24.92,2.09,2.98.84,5.9,1.88,8.7,3.11.16.29.32.57.48.86-11.49,2.56-23.57,3.27-35.22,2.05-.49-.05-.94.29-.99.77-.06.48.3.91.79.96,11.98,1.26,24.4.51,36.17-2.17.52,1.4.73,2.94.09,4.26ZM68.45,54.3c-4.96-8.22-7.83-17.56-8.29-27.11-.02-.48-.44-.85-.94-.83-.49.03-.87.44-.85.92.47,9.84,3.43,19.47,8.56,27.93-.33.16-.66.29-1.02.39-.5.14-1.02.2-1.54.23-.22-.21-.42-.43-.6-.63-.36-.4-.67-.75-.95-1.03-3.73-3.82-6.67-8.43-8.5-13.33-1.77-4.79-2.54-9.98-2.26-15.1.12-2.22.44-4.44.96-6.6.32-1.36.78-2.92,1.64-4.24.11-.17.23-.33.35-.48.78-.99,1.78-1.67,2.81-1.9,2.03-.46,4.15.8,5.35,2.26,1.42,1.72,2.15,3.96,2.84,6.3,2.96,10.15,5.04,20.59,6.15,31.11-1.35.35-2.51,1.28-3.71,2.11ZM117.69,100.64c-.08.29-.53.53-.76.72-1.41,1.2-3.09,2.09-4.71,2.98l-.88.49c-4.85,2.71-10.32,4.45-15.82,5.02-4.07.42-8.2.21-12.21-.59-4.01-.8-7.9-2.19-11.47-4.12-.94-.5-2.03-1.2-2.16-2.1-.06-.44.12-.93.55-1.46.31-.41.76-.84,1.36-1.29,6.04-4.62,13.57-7.51,21.21-8.15,6.51-.53,13.2.54,19.21,3.07t.01.01c.41.17.81.35,1.21.53.05.09.08.18.13.25-.19-.04-.38-.08-.58-.11h0c-4.42-.92-9.29-.96-14.54-.11-6.24.99-12.3,3.08-17.97,5.13-.47.17-.71.69-.53,1.14.17.44.69.68,1.15.51,5.59-2.03,11.55-4.1,17.63-5.06,1.44-.23,2.89-.4,4.34-.5,1.36-.09,2.75-.11,4.12-.06,1.3.05,2.61.17,3.9.37,2.25.42,4.34.82,6.16,2.28.03.02.05.05.08.07.03.02.05.05.08.07.03.03.06.06.11.09.03.03.06.07.09.1.2.22.37.48.3.72ZM118.99,96.06c-.1.12-.22.25-.35.41-.27-.26-.57-.51-.86-.72,1.31-9.78,3.29-19.56,5.93-29.08.13-.47-.15-.95-.64-1.07-.47-.12-.96.15-1.09.62-2.58,9.33-4.54,18.89-5.87,28.5-.39-.21-.8-.42-1.2-.61-.48-1.07-.73-2.13-.88-2.99-.49-3.02-.06-6.16.36-9.2,1.22-8.73,2.59-18.63,7.94-26.43.11-.16.24-.34.38-.51.41-.53.94-1.03,1.49-1.07.46-.02,1.02.31,1.39.84.41.6.62,1.36.81,2.24,1.87,8.02,2.17,15.47.87,22.11-.82,4.27-2.32,8.23-4.43,11.79-1.13,1.88-2.43,3.63-3.85,5.17ZM228.92,223.54c3.76-5.37,9.35-9.87,15.75-12.66.63-.28,1.18-.46,1.65-.55.62-.12,1.1-.08,1.44.12.7.41.82,1.46.85,2.32.09,3.29-.4,6.63-1.43,9.84-1.04,3.22-2.62,6.31-4.68,9.15-2.81,3.81-6.56,7.21-10.88,9.8l-.77.48c-1.43.87-2.88,1.8-4.48,2.4-.25.09-.64.35-.92.31-.34-.06-.5-.52-.56-.79-.48-1.87.08-3.56.68-5.38.39-1.02.83-2.01,1.35-2.98.54-1.03,1.14-2.03,1.79-3,.7-1.03,1.45-2.03,2.25-3,3.37-4.11,7.62-7.75,11.67-11.12.34-.29.36-.75.06-1.04-.31-.27-.83-.28-1.16,0-4.12,3.43-8.42,7.13-11.88,11.35-3.06,3.71-5.14,7.44-6.23,11.15-.03-.05-.09-.12-.14-.18.24-5.65,2.21-11.34,5.64-16.22ZM219.21,238.79h0c.62.4,1.34.94,1.99,1.62,0,.36,0,.73,0,1.09-.3-.08-.59-.16-.88-.24-8.27-2.3-16.75-4.13-25.31-5.49-.43-.06-.87.2-.97.6-.11.39.18.76.61.83,8.94,1.41,17.82,3.36,26.42,5.81.09.03.2.05.29.08.04.29.12.58.23.88-.03,0-.06,0-.09,0-.15.04-.28.07-.41.1-1.88.5-3.89.83-5.92,1-3.85.3-7.79.01-11.69-.9-6.07-1.39-12.13-4.22-18.02-8.42-.63-.44-1.19-.86-1.51-1.38-.28-.45-.33-.98-.11-1.31.26-.38.9-.59,1.52-.7.2-.05.41-.08.58-.11,8.75-1.17,17.56,1.31,25.34,3.49,2.71.76,5.51,1.54,7.8,2.96.04.03.08.05.13.08ZM187.8,159.43c1.46-6.22,4.78-11.89,9.37-15.98.45-.41.86-.7,1.23-.89.5-.24.93-.29,1.28-.14.74.27,1.19,1.33,1.5,2.2,1.18,3.35,1.87,6.87,2.04,10.35.19,3.5-.14,6.98-.99,10.27-1.14,4.44-3.25,8.63-6.1,12.12l-.51.63c-.94,1.17-1.89,2.39-3.06,3.32-.18.14-.44.48-.69.49-.32,0-.6-.43-.75-.69-1.04-1.83-1.11-3.67-1.2-5.65-.01-1.11.06-2.22.18-3.31.12-1.16.31-2.29.55-3.41.25-1.19.56-2.36.93-3.5,1.54-4.86,3.98-9.4,6.35-13.63.2-.35.07-.82-.29-1.07-.35-.23-.81-.13-1,.22-2.4,4.31-4.87,8.91-6.46,13.9-1.4,4.37-1.95,8.6-1.65,12.6-.05-.05-.12-.1-.19-.15-1.66-5.82-1.86-12.03-.54-17.68ZM184.91,177.08c.58.27,1.23.63,1.86,1.09.12.38.23.75.36,1.12-.26-.03-.53-.06-.79-.08-7.91-.76-15.84-1.02-23.67-.77-.39.02-.69.38-.64.79.04.42.41.76.81.75,8.12-.28,16.37.02,24.57.87.13,0,.25.01.38.03.14.29.31.59.49.87-.08.03-.14.06-.21.1-.06.04-.11.07-.17.1-1.47.88-3.07,1.6-4.77,2.16-3.22,1.04-6.7,1.49-10.36,1.32-5.7-.26-11.86-2-18.33-5.16-.7-.34-1.31-.66-1.76-1.13-.4-.41-.61-.94-.53-1.32.1-.45.58-.78,1.07-1.02.16-.08.32-.15.48-.22,7.14-2.87,15.55-2.03,22.98-1.28,2.58.25,5.25.52,7.7,1.55.17.07.35.14.53.23ZM160.22,241.54c-.12.25-.56.39-.79.52h0c-1.46.86-3.11,1.38-4.72,1.91l-.87.3c-4.8,1.64-9.99,2.32-15.01,1.94-3.71-.28-7.38-1.13-10.85-2.5-3.45-1.37-6.72-3.24-9.59-5.55-.76-.61-1.61-1.41-1.58-2.24.01-.41.25-.82.73-1.23.34-.3.82-.62,1.44-.92,6.17-3.18,13.41-4.54,20.36-3.88,5.55.53,11.02,2.38,15.77,5.28.66.4,1.3.83,1.93,1.27.02.08.05.17.08.24-.48-.21-.98-.4-1.48-.58-3.58-1.29-7.6-1.99-12.05-2.07-5.76-.12-11.54.78-16.96,1.7-.45.08-.74.49-.66.92.08.44.5.73.95.65,5.34-.92,11.03-1.8,16.64-1.68,1.32.03,2.65.11,3.97.26,1.24.14,2.47.34,3.7.61,1.16.26,2.31.57,3.43.96.84.32,1.65.63,2.41,1.01,1.04.51,1.99,1.15,2.8,2.11.19.23.51.66.36.97ZM161.76,237.95c-.2-.28-.42-.54-.65-.78,2.79-8.56,6.19-17,10.14-25.11.19-.4.02-.87-.4-1.05-.4-.2-.89-.03-1.08.36-3.86,7.95-7.2,16.21-9.99,24.6-.32-.25-.64-.49-.97-.73-.26-1.05-.31-2.04-.3-2.83.06-2.78.97-5.53,1.86-8.18,2.54-7.64,5.41-16.29,11.49-22.42.13-.12.28-.26.43-.4.46-.4,1.02-.76,1.51-.71.42.05.87.44,1.1.97.28.61.33,1.33.37,2.14.34,7.5-.63,14.23-2.89,19.97-1.44,3.7-3.45,7.01-5.93,9.85-1.33,1.5-2.77,2.86-4.31,4.02-.12.08-.24.19-.38.3ZM174.38,255.31c-4.4-4.07-8.37-8.59-11.84-13.45.18-.39.27-.81.27-1.26,0-.27-.04-.55-.12-.81.11-.09.23-.18.32-.26.14-.12.26-.22.39-.31.56-.43,1.12-.89,1.68-1.37,1.01-.9,2-1.88,2.91-2.93,2.64-3.01,4.76-6.52,6.3-10.42,2.36-6.01,3.37-12.99,3.02-20.78-.05-.98-.12-1.92-.54-2.85-.54-1.19-1.59-2.02-2.74-2.15-1.57-.17-2.83.9-3.63,1.71-6.42,6.44-9.37,15.33-11.97,23.18-.91,2.73-1.85,5.56-1.95,8.57-7.55-13.86-11.5-29.59-11.07-45.27.48-16.85,5.69-32.29,12.56-45.46,8.92,10.54,17.31,21.54,25.14,32.98-2.13-.61-4.3-.82-6.4-1.04-7.63-.75-16.28-1.62-23.8,1.4-.95.38-2.25,1.06-2.56,2.47-.22,1.04.19,2.25,1.07,3.17.7.71,1.51,1.14,2.36,1.55,6.69,3.28,13.1,5.09,19.05,5.35,3.87.18,7.56-.29,10.97-1.4,1.18-.38,2.33-.85,3.41-1.38.59-.29,1.16-.59,1.7-.92.07-.04.15-.08.23-.14,10.79,16.68,20.42,34.21,28.79,52.49-1.91-.83-3.96-1.4-5.94-1.96-7.99-2.24-17.05-4.78-26.26-3.54-1.16.15-2.81.5-3.64,1.72-.6.91-.59,2.09.05,3.11.49.78,1.22,1.34,1.99,1.88,6.1,4.35,12.41,7.29,18.75,8.75,4.13.95,8.3,1.26,12.38.93,1.41-.1,2.83-.29,4.18-.56.73-.15,1.46-.31,2.16-.49.15-.05.31-.07.48-.12.05,0,.1-.03.15-.03,1.61,3.77,3.17,7.56,4.68,11.38l.22.55c2.99,7.56,6,15.23,9.14,22.88-22.91,1.31-41.52-6.29-61.89-25.17ZM77.24,338.56c-.04-.2-.07-.39-.09-.58-.14-1.24.11-2.41.69-3.27,1.14-1.7,3.57-2.22,5.47-1.98,2.24.28,4.37,1.4,6.53,2.63,9.34,5.31,18.25,11.43,26.52,18.26-.73,1.16-.91,2.62-1.19,4.02-9.42-2.57-18.13-7.36-25.23-13.93-.36-.33-.93-.32-1.27.03-.34.36-.32.91.04,1.24,7.32,6.77,16.29,11.71,26,14.35-.12.33-.27.66-.46.97-.26.43-.59.82-.95,1.2-.31,0-.61-.03-.88-.05-.54-.04-1.02-.08-1.41-.1-5.42-.23-10.81-1.57-15.61-3.87-4.68-2.25-8.92-5.48-12.35-9.35-1.49-1.69-2.83-3.5-3.99-5.4-.73-1.2-1.51-2.64-1.82-4.17ZM63.34,363.4c-2.98-2.2-4.6-4.46-4.76-6.77-.18-2.29,1.18-4.74,3.45-6.22,2.55-1.68,5.65-1.93,7.81-1.85,2.84.13,8.54.91,11.46,1.59,3.6,4,8.04,7.34,12.91,9.68,2.57,1.23,5.29,2.2,8.09,2.9,1.56.39,3.16.7,4.76.91-11.4.25-23.84.06-34.66-4.75-.45-.2-.99,0-1.19.43-.21.43,0,.96.44,1.16,10.34,4.6,21.97,5.11,32.83,4.94-6.17.91-12.27,2.36-18.18,4.33-7.47,1.14-16.05-1.24-22.96-6.35ZM70.72,400c-2.99.25-5.74-.59-7.34-2.27-1.47-1.51-2.17-3.87-1.9-6.34.33-3.02,2.03-6.08,4.77-8.65,2.7-2.51,6.07-4.3,9.02-5.72,3.8-1.82,7.72-3.41,11.74-4.75,7.44-2.48,15.2-4.13,23.02-4.88-12.68,4.09-24.71,10.6-34.96,18.92-.38.31-.43.86-.11,1.23.31.37.88.42,1.26.12,10.4-8.45,22.66-14.99,35.58-18.98.31.32.67.6,1.05.84-2.09.81-4.14,1.75-6.13,2.78-7.69,3.95-14.72,9.46-20.31,15.92-1.29,1.48-2.51,3.02-3.64,4.59-.42.57-.79,1.21-1.15,1.82-.57.97-1.16,1.97-1.84,2.6-1.6,1.52-5.82,2.5-9.06,2.77ZM91.56,408.96c-2.16,1.11-4.47,2.16-6.85,2.24-1.98.07-4.4-.73-5.35-2.64-1.13-2.26.18-5.23,1.27-7.27.26-.51.54-1.02.83-1.52.11-.21.16-.42.17-.63t0-.02c.96-.89,1.64-2.06,2.31-3.19.35-.59.67-1.14,1.01-1.61,1.09-1.51,2.26-2.99,3.49-4.41,5.39-6.21,12.14-11.49,19.52-15.3,2.75-1.42,5.6-2.64,8.5-3.64.32.1.64.2.95.3-6.49,9.6-14.73,18.25-24.02,25.24-.4.3-.48.84-.17,1.22.29.38.86.46,1.25.16,9.57-7.17,18.01-16.09,24.64-25.97,1.36.66,2.6,1.63,3.08,3.02.14.42.21.86.26,1.3-6.18,13.85-17.23,25.6-30.9,32.72ZM186.66,365.91c-2.22,6.47-6.32,12.97-12.19,19.29-.63.67-1.21,1.27-1.91,1.62-.62.31-1.31.36-1.73.13-.49-.28-.71-.95-.83-1.61-.04-.22-.07-.42-.1-.62-.95-9.31,2.87-18.73,6.25-27.05,1.16-2.88,2.38-5.88,4.38-8.34.58-.69,1.37-1.52,2.38-2.26.47,0,.95-.01,1.42-.02-3.72,9.15-6.81,18.52-9.22,27.97-.12.46.19.93.71,1.03.5.1,1.01-.2,1.13-.66,2.46-9.65,5.64-19.23,9.46-28.52.38-.06.78-.14,1.17-.25.04.2.08.37.11.51.53,2.01.84,4.14.92,6.31.13,4.11-.51,8.29-1.95,12.47ZM188.66,342.75c-.23.19-.62.3-.86.35-.54.11-1.07.17-1.58.2h-.03c-1.86.07-3.58-.38-5.41-.87-1.3-.4-2.57-.87-3.81-1.41-1.3-.56-2.57-1.19-3.79-1.87-1.31-.74-2.56-1.52-3.78-2.37-5.16-3.55-9.64-8.03-13.8-12.31-.34-.36-.93-.38-1.33-.05-.4.32-.43.88-.09,1.23,4.22,4.34,8.77,8.89,14.06,12.53,4.3,2.98,8.69,5.07,13.1,6.25.36.1.73.19,1.09.27-.08.04-.16.1-.25.16-.71-.02-1.43-.06-2.14-.12-6.64-.49-13.14-2.47-18.71-5.72-6.77-3.95-12.3-9.86-15.53-16.64-.32-.68-.51-1.26-.61-1.76-.12-.66-.04-1.17.26-1.54.57-.75,1.96-.89,3.08-.92,4.32-.14,8.65.35,12.79,1.42,4.14,1.07,8.09,2.72,11.65,4.89,4.82,2.94,9.01,6.91,12.13,11.48l.57.82c1.05,1.52,2.15,3.05,2.85,4.74.1.27.41.69.33.98-.03.1-.09.19-.19.26ZM234.66,345.42c-.52,4.05-1.58,8.05-3.18,11.87-2.47,5.95-6.23,11.57-11.15,16.67-.53.56-1.02,1.03-1.55,1.24-.45.19-.92.11-1.18-.19-.28-.37-.34-1.07-.32-1.73,0-.23.02-.45.03-.65.75-9.3,4.75-17.83,8.27-25.38,1.22-2.61,2.49-5.32,4.23-7.36.2-.23.41-.48.66-.72.38-.38.8-.75,1.28-1.08.32.1.65.18.97.26-.1.22-.21.45-.31.67-3.77,8.08-7.16,16.48-10.12,25.07-.16.43,0,.95.32,1.14.32.2.72,0,.87-.44,3.06-8.88,6.59-17.56,10.5-25.86.05-.13.12-.25.17-.37.27.02.55,0,.84-.03v.33c0,.07,0,.14,0,.2.07,2.07-.04,4.22-.32,6.36ZM236.47,334.71c-.12.35-.56.4-.81.41-1.77.06-3.15-.92-4.65-1.98-.82-.62-1.61-1.33-2.38-2.08-.79-.79-1.56-1.65-2.29-2.56-.77-.96-1.51-1.96-2.21-3.01-2.95-4.46-5.33-9.69-7.5-14.67-.18-.41-.58-.54-.9-.3-.31.25-.42.78-.24,1.2,2.2,5.05,4.61,10.36,7.65,14.93,2.68,4.03,5.57,7.05,8.64,9.04-.06.02-.13.06-.19.11-4.96-1.58-9.62-4.94-13.26-9.62-4-5.14-6.86-11.97-8.04-19.24-.11-.72-.16-1.33-.15-1.84.02-.67.15-1.14.41-1.46.5-.62,1.46-.5,2.23-.32,2.94.66,5.81,1.95,8.45,3.77,2.65,1.82,5.08,4.17,7.17,6.97,2.82,3.79,5.07,8.46,6.5,13.53l.27.91c.48,1.68,1,3.4,1.22,5.19.03.28.17.75.08,1.02ZM401.38,374.26c1.01-4.48,1.2-9.19.54-14.03,7.68,10.95,16.35,21.2,25.88,30.57,1.41,1.4,2.93,2.8,4.66,3.74-1.56,3.94-3.33,8.44-4.23,10.71-9.37-7.25-18.93-13.99-28.59-20.21.02-.64-.14-1.26-.49-1.86-.18-.3-.41-.57-.65-.82.06-.15.13-.32.18-.46.09-.19.17-.39.25-.54.37-.77.7-1.56,1.02-2.38.58-1.51,1.06-3.1,1.43-4.72ZM422.59,404.28c-11.33-3.02-22.76-5.18-34.2-6.5,1.74-1.28,3.39-2.69,4.91-4.19l.79-.77c1.56-1.52,3.45-3.34,4.61-5.23,8.06,5.18,15.98,10.72,23.89,16.69ZM384.64,336.02c.07-.21.15-.44.23-.66.27-.69.66-1.37,1.25-1.57.1-.03.22-.05.34-.05h0c.47-.03,1.03.16,1.52.53.69.52,1.22,1.28,1.77,2.15,3.81,5.91,6.55,11.74,8.16,17.38h0c.58,2.02,1.02,4.01,1.31,5.97.73,4.81.58,9.47-.42,13.89-.54,2.33-1.31,4.57-2.31,6.64-.07.16-.15.33-.23.54-.41-.21-.83-.38-1.24-.52-2.3-10.83-3.84-21.84-4.55-32.77-.04-.54-.53-.97-1.12-.95-.58,0-1.02.44-.99.96.71,10.73,2.19,21.51,4.4,32.15-.3-.07-.62-.12-.92-.18-.21-.05-.43-.08-.64-.12-.46-.48-.85-.97-1.2-1.45-.37-.52-.69-1.03-.95-1.49-1.7-3.07-2.43-6.55-3.12-9.92-2-9.68-4.26-20.65-1.3-30.53ZM268.91,339.19c4.6.38,9.15.91,13.65,1.57,6.25.93,12.59,2.16,19.01,3.7-1.52,4.36-2.26,8.93-2.12,13.34.14,4.55,1.23,9.01,3.13,13.02-12.53-7.59-23.95-18.21-33.67-31.63ZM307.52,378.59c-1.23,1.49-2.65,2.91-4.19,4.21-2.93,2.46-6.29,4.49-9.99,6.01-5.75,2.37-12.37,3.58-19.67,3.6-.78,0-1.48-.02-2.06-.24-.5-.2-.85-.61-.87-1-.02-.46.36-.99.79-1.45.14-.15.28-.28.42-.42,6.36-5.98,14.98-9.06,22.59-11.78,2.65-.96,5.38-1.93,8.1-2.11.7-.04,1.56-.04,2.48.11.23.07.23.1.38.22.2.24.36.44.53.7-8.36,2.99-16.63,6.49-24.63,10.48-.39.19-.59.66-.42,1.03.15.37.6.51,1,.32,8.16-4.07,16.61-7.63,25.14-10.63.21.2.46.4.72.57-.12.14-.23.27-.32.38ZM311.99,375.84c-.14.22-.3.64-.55.76-.31.16-.71-.12-.93-.29-.71-.57-1.21-1.24-1.6-1.98-.46-.85-.78-1.78-1.11-2.76-.31-1.04-.54-2.1-.72-3.18-.18-1.13-.3-2.28-.35-3.45-.07-1.23-.06-2.46-.01-3.7.22-4.96,1.33-10.03,2.48-14.83.07-.29.14-.58.21-.87.1-.41-.15-.8-.57-.85-.42-.06-.84.25-.94.66-.05.22-.11.45-.16.67-1.19,4.94-2.33,10.15-2.58,15.32-.2,4.41.28,8.36,1.46,11.78.08.27.17.53.27.78-.06-.02-.15-.04-.23-.06-.25-.36-.48-.72-.71-1.09-2.77-4.46-4.37-9.76-4.55-15.22-.13-4.17.56-8.49,2.01-12.62.28-.85.6-1.68.97-2.5.6-1.42,1.3-2.81,2.09-4.15.34-.59.67-1.05,1-1.4.43-.46.84-.7,1.24-.73.8-.07,1.54.7,2.08,1.38,1.88,2.35,3.39,5.02,4.48,7.88.11.28.22.58.32.87.25.72.48,1.45.68,2.19.68,2.55,1.05,5.18,1.08,7.87.05,4.7-.93,9.59-2.85,14.17l-.34.83c-.63,1.53-1.24,3.11-2.17,4.52ZM313.69,376.6c.92-1.47,1.66-3.24,2.26-4.73l.34-.82c2.02-4.84,3.07-10,3-14.95-.03-2.36-.3-4.7-.8-6.96,21.55,6.75,43.63,16.67,65.4,29.36-.15.06-.29.1-.44.15-6.42-.18-12.84.78-18.71,2.85-2.09.73-4.11,1.61-6.06,2.61-15.6,1.36-30.84-1.26-44.99-7.51ZM344.22,400.43c.05-.12.1-.25.16-.38.2-.42.5-.89.87-1.4.51-.68,1.04-1.35,1.59-2,3.33-3.93,7.48-7.28,12.15-9.84,2.16-1.2,4.44-2.22,6.79-3.05,5.86-2.06,12.28-2.95,18.68-2.65,1.51.06,3.01.2,4.5.4.33.05.66.09.99.15.09.07.17.16.25.22-.2,0-.39,0-.59.03-5.31.31-10.8,1.7-16.38,4.16-6.27,2.75-11.97,6.51-17.29,10.2h-.02c-.26.18-.5.36-.76.54-.46.31-.53.92-.16,1.34.37.44,1.03.54,1.48.22,1.03-.72,2.07-1.44,3.13-2.15,4.56-3.1,9.4-6.13,14.6-8.4,1.51-.67,3.07-1.27,4.65-1.8,1.49-.5,3.02-.92,4.57-1.26,1.47-.34,2.97-.58,4.49-.75,1.74-.13,3.4-.26,5.07-.05.92.12,1.86.34,2.79.73.37.16,1,.46,1.04.88,0,.2-.14.41-.29.62-.11.14-.22.26-.28.36-1.11,1.7-2.65,3.13-4.12,4.57l-.79.78c-2.06,2.02-4.35,3.87-6.82,5.47-1.72,1.13-3.53,2.15-5.41,3.04h0c-1.14.53-2.3,1.03-3.48,1.47-4.38,1.63-9.06,2.62-13.85,2.93-4.77.32-9.65,0-14.38-1.03-1.24-.27-2.73-.7-3.21-1.62-.25-.46-.23-1.04.04-1.73ZM424.32,446.21c-7.56,69.75-49.92,127.54-118.62,159.46-31.07,14.4-64.15,16.96-97.75,21.79-16.95,2.42-34.19,2.69-51.17,5.15-4.45.65-7.4.14-9.02-1.53-4.66-4.83.84-22.07,1.65-31.1,10.19-122.27,91.42-192.49,192.09-199.74-.21.9-.2,1.9.32,2.88,1,1.91,3.24,2.61,5.09,3.01,9.98,2.17,20.57,1.45,29.8-2.01,2.43-.91,4.77-2.01,7.01-3.3h.01c13.43,1.3,27.06,3.65,40.78,7.08-13.13,6.63-25.55,13.43-38.13,21.02-23.04-9.14-48.94-12.13-73.31-7.22-1.28.24-.86,2.22.4,1.96,23.46-4.6,48.55-2.22,70.75,6.7-7.22,4.38-14.36,8.91-21.41,13.57-10.04-4.73-20.73-7.56-31.8-8.42-1.3-.13-1.45,1.91-.16,1.99,10.42.82,20.5,3.41,29.99,7.72-7.74,5.13-15.39,10.41-22.95,15.8-14.77-6.67-31.71-9.21-47.77-7.14-.55.07-.94.56-.87,1.11.07.55.57.94,1.12.87,15.31-1.96,31.45.34,45.64,6.5-10.08,7.22-20.03,14.66-29.85,22.24-26.69-10.69-55.84-14.47-84.39-10.95-1.3.15-1.04,2.18.24,2,27.82-3.45,56.23.15,82.32,10.37-13.17,9.95-49.77,40.19-50.64,41.02-15.04-6.78-32.23-9.62-48.63-7.46-.55.08-.93.58-.86,1.12.07.55.57.94,1.12.87,15.69-2.02,32.25.45,46.66,6.95-9.54,8.29-18.79,16.73-27.79,25.57-17.13-6.31-36.18-6.59-53.49-.89-1.25.39-.62,2.35.63,1.9,16.59-5.47,34.8-5.28,51.28.54-7.59,7.52-14.78,15.01-21.83,23.04-7.03-1.78-14.56-1.31-21.41,1.02-1.24.4-.57,2.34.66,1.89,6.2-2.12,12.89-2.56,19.32-1.22-4.89,5.63-8.84,10.25-13.39,16.16-4.3-.45-9.12-.4-13.45.18-.56.06-.94.57-.87,1.12.08.55.58.94,1.13.87,3.87-.52,7.83-.62,11.73-.29-.72,1.02-12.38,15.77-7.97,12.97,1.99-2.1,5.72-7.5,8.6-11.2.06,3.36-.19,6.73-.74,10.03-.13.69.52,1.3,1.19,1.15,1.78-.29,1.61-11.75,1.41-13.55,4.98-6.31,9.93-12.14,15.29-18.11,1.86,6.12,2.08,12.63.66,18.86-.32,1.27,1.67,1.72,1.95.45,1.61-6.97,1.18-14.26-1.03-21.04,7.41-8.19,15.07-15.98,23.04-23.62,5.98,16.53,6.29,34.84.86,51.55-.26.71.43,1.46,1.15,1.28,7.25-16.6,5.64-37.29-.43-54.34,8.72-8.28,17.52-16.1,26.7-23.88,5.2,14.44,6.5,30.56,3.65,45.6-.16.7.5,1.33,1.19,1.17.38-.08.69-.38.77-.79,2.97-15.65,1.54-32.41-3.99-47.35,17.73-14.9,35.98-29,54.4-42.96,6.8,27.98,6.31,57.44-1.42,85.18-.21.7.46,1.4,1.17,1.24,9.59-27.56,8.63-59.26,2-87.77,9.18-6.88,18.1-13.34,27.51-19.9,5.34,14.43,6.77,30.59,4.01,45.7-.14.69.52,1.31,1.2,1.16.38-.08.7-.39.78-.8,2.85-15.63,1.32-32.36-4.3-47.24,7.98-5.55,16.03-10.95,24.2-16.19,3.93,10.14,5.96,20.79,6.05,31.65-.01.63.59,1.1,1.21.97.46-.09.8-.5.79-.98-.09-11.26-2.22-22.26-6.33-32.74,6.5-4.15,13.07-8.2,19.71-12.13,8.02,21.66,9.91,45.87,5.31,68.49-.17.67.5,1.33,1.18,1.17,6.6-22.27,3.05-48.7-4.73-70.69,12.6-7.41,25.45-14.39,38.62-20.83.79,1.16-1.36,20.29-3.84,35.29ZM464.45,430.23c-3.74-.86-7.51-1.81-11.13-3.05-4.9-1.67-12.53-5.04-17.84-11.09-.06-.08-.12-.14-.19-.21-1.91-2.21-3.51-4.77-4.54-7.72-.01-.04-.03-.08-.05-.11.02-.02.03-.04.04-.07,0,0,2.74-6.72,4.94-12.11,1.76.67,3.71.95,5.61,1.17,16.25,1.83,32.71,1.83,48.97.01-3.98,4.46-7.18,9.51-9.42,15.01-1.5,4-2.68,8.19-2.77,13.19,0,.14,0,.29.03.44-3.98,2.06-9.94,4.37-13.65,4.54Z"/>
  </g>
</svg>