<?xml version="1.0" encoding="UTF-8"?>
<svg id="Layer_2" data-name="Layer 2" xmlns="http://www.w3.org/2000/svg" viewBox="0 0 540 350.37">
  <defs>
    <style>
      .cls-1 {
        fill: #4f6175;
        stroke-width: 0px;
      }
    </style>
  </defs>
  <g id="Layer_1-2" data-name="Layer 1">
    <g>
      <g>
        <path class="cls-1" d="M0,169.01c7.97-.23,13.87-3.19,17.69-8.89,3.82-5.7,5.73-15.32,5.73-28.88V37.25c0-4.33-.34-7.46-1.02-9.4-.68-1.94-1.97-3.25-3.84-3.93-1.88-.68-4.87-1.14-8.97-1.37v-3.42c4.79.34,11.96.51,21.53.51s16.69-.17,22.05-.51v3.42c-4.1.23-7.09.68-8.97,1.37-1.88.68-3.16,1.99-3.84,3.93-.68,1.94-1.02,5.07-1.02,9.4v62.55c0,9.69-.17,18.26-.51,25.72-.34,7.46-1.14,13.76-2.39,18.88-2.05,8.31-6.24,15.04-12.56,20.17-6.32,5.13-14.27,7.69-23.84,7.69v-3.25Z"/>
        <path class="cls-1" d="M139.28,121.68c0,5.24.97,9.06,2.91,11.45,1.94,2.39,5.3,3.59,10.08,3.59v3.59c-3.53-.34-7.06-.51-10.6-.51-7.18,0-13.1.8-17.77,2.39v-20.16c-2.73,7.06-6.61,12.25-11.62,15.55-5.01,3.3-10.48,4.96-16.4,4.96-7.75,0-13.67-2.17-17.77-6.49-2.05-2.28-3.5-5.18-4.36-8.71-.85-3.53-1.28-8.09-1.28-13.67v-42.89c0-5.24-.97-9.06-2.91-11.45-1.94-2.39-5.3-3.59-10.08-3.59v-3.59c3.53.34,7.06.51,10.6.51,7.18,0,13.1-.8,17.77-2.39v67.16c0,4.33.26,7.84.77,10.51.51,2.68,1.71,4.87,3.59,6.58,1.88,1.71,4.76,2.56,8.63,2.56,4.33,0,8.26-1.37,11.79-4.1,3.53-2.73,6.29-6.46,8.29-11.19,1.99-4.73,2.99-9.94,2.99-15.64v-35.37c0-5.24-.97-9.06-2.91-11.45-1.94-2.39-5.3-3.59-10.08-3.59v-3.59c3.53.34,7.06.51,10.6.51,7.18,0,13.1-.8,17.77-2.39v71.44ZM125.27,5.98c0,1.71-.8,3.65-2.39,5.81-2.28,2.85-5.53,5.98-9.74,9.4-.8.68-2.88,2.59-6.24,5.73-3.36,3.13-7.04,6.75-11.02,10.85l-1.88-1.54c4.21-6.72,8.14-13.61,11.79-20.68,2.62-5.24,4.9-9.17,6.84-11.79,1.82-2.5,3.99-3.76,6.49-3.76,1.59,0,2.85.4,3.76,1.2,1.6,1.37,2.39,2.96,2.39,4.78Z"/>
        <path class="cls-1" d="M188.15,124.24c0,4.67.97,7.89,2.91,9.66,1.94,1.77,5.3,2.65,10.08,2.65v3.59c-10.48-.45-17.38-.68-20.68-.68s-10.2.23-20.68.68v-3.59c4.79,0,8.15-.88,10.08-2.65,1.93-1.77,2.9-4.98,2.9-9.66V26.66c0-5.24-.97-9.06-2.9-11.45-1.94-2.39-5.3-3.59-10.08-3.59v-3.59c3.53.34,7.06.51,10.6.51,7.18,0,13.1-.8,17.77-2.39v118.09Z"/>
        <path class="cls-1" d="M238.22,124.24c0,4.67.97,7.89,2.91,9.66,1.94,1.77,5.3,2.65,10.08,2.65v3.59c-10.48-.45-17.37-.68-20.68-.68s-10.2.23-20.68.68v-3.59c4.79,0,8.15-.88,10.08-2.65,1.94-1.77,2.91-4.98,2.91-9.66v-53.49c0-5.24-.97-9.06-2.91-11.45-1.94-2.39-5.3-3.59-10.08-3.59v-3.59c3.65.34,7.18.51,10.6.51,7.18,0,13.1-.8,17.77-2.39v74ZM237.03,12.65c2.16,2.17,3.25,4.73,3.25,7.69s-1.08,5.53-3.25,7.69-4.73,3.25-7.69,3.25-5.53-1.08-7.69-3.25c-2.17-2.16-3.25-4.73-3.25-7.69s1.08-5.52,3.25-7.69c2.16-2.16,4.73-3.25,7.69-3.25s5.52,1.08,7.69,3.25Z"/>
        <path class="cls-1" d="M266.85,135.95c-3.48-3.59-5.21-8.57-5.21-14.95,0-5.13,1.39-9.34,4.19-12.65,2.79-3.3,6.09-5.92,9.91-7.86,3.82-1.94,8.86-3.99,15.12-6.15,6.38-2.16,11.11-4.16,14.18-5.98,3.08-1.82,4.62-4.27,4.62-7.35v-10.6c0-6.6-1.4-11.13-4.19-13.59-2.79-2.45-6.69-3.67-11.71-3.67-7.98,0-13.62,2.05-16.92,6.15,2.28.57,4.19,1.77,5.72,3.59,1.54,1.82,2.31,4.1,2.31,6.84s-.91,5.1-2.73,6.75c-1.83,1.65-4.16,2.48-7.01,2.48-3.19,0-5.58-1-7.18-2.99-1.6-1.99-2.39-4.41-2.39-7.26s.65-5.01,1.97-6.84c1.31-1.82,3.27-3.65,5.89-5.47,2.73-1.94,6.21-3.53,10.42-4.79,4.22-1.25,8.83-1.88,13.84-1.88,8.89,0,15.61,2.11,20.17,6.32,2.85,2.62,4.76,5.78,5.73,9.48.96,3.7,1.45,8.57,1.45,14.61v47.51c0,2.85.4,4.9,1.2,6.15.8,1.25,2.16,1.88,4.1,1.88,1.37,0,2.65-.31,3.84-.94,1.2-.62,2.48-1.51,3.84-2.65l1.88,2.91c-2.96,2.28-5.5,3.9-7.6,4.87-2.11.97-4.76,1.45-7.95,1.45-5.47,0-9.29-1.37-11.45-4.1-2.17-2.73-3.25-6.44-3.25-11.11-3.42,5.7-7.35,9.66-11.79,11.88-4.44,2.22-9.46,3.33-15.04,3.33-7.18,0-12.5-1.8-15.98-5.38ZM309.66,121.51v-33.5c-1.02,1.6-2.45,2.91-4.27,3.93-1.82,1.02-4.61,2.39-8.37,4.1-4.33,1.82-7.84,3.56-10.51,5.21-2.68,1.65-4.99,3.9-6.92,6.75-1.94,2.85-2.91,6.49-2.91,10.94,0,5.13,1.25,9,3.76,11.62,2.51,2.62,5.81,3.93,9.91,3.93,7.52,0,13.95-4.33,19.31-12.99Z"/>
      </g>
      <g>
        <path class="cls-1" d="M90.29,347.12c7.97-.23,13.87-3.19,17.69-8.89,3.82-5.7,5.73-15.32,5.73-28.88v-93.99c0-4.33-.34-7.46-1.02-9.4-.68-1.94-1.97-3.25-3.84-3.93-1.88-.68-4.87-1.14-8.97-1.37v-3.42c4.79.34,11.96.51,21.53.51s16.69-.17,22.05-.51v3.42c-4.1.23-7.09.68-8.97,1.37-1.88.68-3.16,1.99-3.84,3.93-.68,1.94-1.02,5.07-1.02,9.4v62.55c0,9.69-.17,18.26-.51,25.72-.34,7.46-1.14,13.76-2.39,18.88-2.05,8.31-6.24,15.04-12.56,20.17-6.32,5.13-14.27,7.69-23.84,7.69v-3.25Z"/>
        <path class="cls-1" d="M221.28,239.37c7.12,7.69,10.68,19.34,10.68,34.95s-3.56,27.23-10.68,34.86c-7.12,7.63-16.49,11.45-28.11,11.45s-20.99-3.81-28.11-11.45c-7.12-7.63-10.68-19.25-10.68-34.86s3.56-27.26,10.68-34.95c7.12-7.69,16.49-11.53,28.11-11.53s20.99,3.84,28.11,11.53ZM176.93,241.76c-3.99,7.01-5.98,17.86-5.98,32.56s1.99,25.52,5.98,32.47c3.99,6.95,9.4,10.42,16.24,10.42s12.24-3.47,16.24-10.42c3.99-6.95,5.98-17.77,5.98-32.47s-1.99-25.55-5.98-32.56c-3.99-7.01-9.4-10.51-16.24-10.51s-12.25,3.5-16.24,10.51Z"/>
        <path class="cls-1" d="M251.87,314.05c-3.48-3.59-5.21-8.57-5.21-14.95,0-5.13,1.39-9.34,4.19-12.65,2.79-3.3,6.09-5.92,9.91-7.86,3.82-1.94,8.86-3.99,15.12-6.15,6.38-2.16,11.11-4.16,14.18-5.98,3.08-1.82,4.62-4.27,4.62-7.35v-10.6c0-6.6-1.4-11.13-4.19-13.59-2.79-2.45-6.69-3.67-11.71-3.67-7.98,0-13.62,2.05-16.92,6.15,2.28.57,4.19,1.77,5.72,3.59,1.54,1.82,2.31,4.1,2.31,6.84s-.91,5.1-2.73,6.75c-1.83,1.65-4.16,2.48-7.01,2.48-3.19,0-5.58-1-7.18-2.99-1.6-1.99-2.39-4.41-2.39-7.26s.65-5.01,1.97-6.84c1.31-1.82,3.27-3.65,5.89-5.47,2.73-1.94,6.21-3.53,10.42-4.79,4.22-1.25,8.83-1.88,13.84-1.88,8.89,0,15.61,2.11,20.17,6.32,2.85,2.62,4.76,5.78,5.73,9.48.96,3.7,1.45,8.57,1.45,14.61v47.51c0,2.85.4,4.9,1.2,6.15.8,1.25,2.16,1.88,4.1,1.88,1.37,0,2.65-.31,3.84-.94,1.2-.62,2.48-1.51,3.84-2.65l1.88,2.91c-2.96,2.28-5.5,3.9-7.6,4.87-2.11.97-4.76,1.45-7.95,1.45-5.47,0-9.29-1.37-11.45-4.1-2.17-2.73-3.25-6.44-3.25-11.11-3.42,5.7-7.35,9.66-11.79,11.88-4.44,2.22-9.46,3.33-15.04,3.33-7.18,0-12.5-1.8-15.98-5.38ZM294.68,299.61v-33.5c-1.02,1.6-2.45,2.91-4.27,3.93-1.82,1.02-4.61,2.39-8.37,4.1-4.33,1.82-7.84,3.56-10.51,5.21-2.68,1.65-4.99,3.9-6.92,6.75-1.94,2.85-2.91,6.49-2.91,10.94,0,5.13,1.25,9,3.76,11.62,2.51,2.62,5.81,3.93,9.91,3.93,7.52,0,13.95-4.33,19.31-12.99Z"/>
        <path class="cls-1" d="M404.3,239.8c5.98,7.98,8.97,19.48,8.97,34.52,0,9.91-1.71,18.34-5.13,25.29-3.42,6.95-8.01,12.19-13.76,15.72-5.75,3.53-12.16,5.3-19.23,5.3-4.22,0-8.29-.85-12.22-2.56-3.93-1.71-7.38-4.16-10.34-7.35l-12.13,10.25-2.9-1.2c.8-2.85,1.2-6.15,1.2-9.91v-104.93c0-5.24-.97-9.06-2.91-11.45-1.94-2.39-5.3-3.59-10.08-3.59v-3.59c3.65.34,7.18.51,10.6.51,7.18,0,13.1-.79,17.77-2.39v61.69c2.51-5.81,6.12-10.31,10.85-13.5,4.73-3.19,10-4.78,15.81-4.78,9.68,0,17.52,3.99,23.5,11.96ZM390.97,306.36c3.81-6.89,5.72-17.57,5.72-32.04s-1.71-24.27-5.13-31.1c-3.42-6.84-8.66-10.25-15.72-10.25-4.78,0-9.17,1.85-13.16,5.55-3.99,3.7-6.84,8.92-8.55,15.64v54.17c2.62,2.73,5.64,4.82,9.06,6.24,3.42,1.42,6.95,2.14,10.6,2.14,7.63,0,13.36-3.44,17.17-10.34Z"/>
        <path class="cls-1" d="M500.43,297.73c-2.05,6.27-5.9,11.65-11.54,16.15-5.64,4.5-12.45,6.75-20.42,6.75s-15.1-1.85-21.02-5.55c-5.92-3.7-10.45-8.89-13.58-15.55-3.14-6.66-4.7-14.38-4.7-23.16,0-9.91,1.59-18.51,4.79-25.8,3.19-7.29,7.69-12.9,13.5-16.83,5.81-3.93,12.59-5.89,20.34-5.89,10.26,0,18.14,3.1,23.67,9.31,5.53,6.21,8.29,15.64,8.29,28.28h-53.49c-.34,3.19-.51,6.83-.51,10.94,0,7.52,1.22,14.07,3.67,19.65,2.45,5.58,5.7,9.88,9.74,12.9,4.04,3.02,8.29,4.53,12.73,4.53,5.47,0,10.31-1.31,14.53-3.93,4.22-2.62,7.75-7.01,10.6-13.16l3.42,1.37ZM453.26,238.94c-3.87,5.24-6.27,12.99-7.18,23.24h37.26c.23-8.89-1.05-16.29-3.85-22.22-2.79-5.92-6.92-8.89-12.39-8.89s-9.97,2.62-13.84,7.86Z"/>
      </g>
      <path class="cls-1" d="M531.73,25.44c5.51,4.85,8.27,11.4,8.27,19.64,0,6.38-1.73,11.93-5.18,16.65-3.46,4.72-8.04,8.47-13.76,11.27-5.05,2.39-14.89,5.85-29.51,10.37,7.44,3.19,12.93,7.75,16.45,13.66,3.52,5.92,5.28,12.66,5.28,20.24,0,8.24-2.46,16.02-7.38,23.33-4.92,7.31-11.96,13.19-21.14,17.65-9.17,4.45-19.94,6.68-32.3,6.68-11.56,0-22.3-2.03-32.2-6.08-9.9-4.05-17.78-9.83-23.63-17.35-5.85-7.51-8.77-16.25-8.77-26.22,0-8.77,2.16-16.18,6.48-22.23,4.32-6.05,9.27-10.63,14.86-13.76,5.58-3.12,10.77-5.28,15.55-6.48-6.52-2.79-11.5-6.51-14.95-11.17-3.46-4.65-5.18-9.5-5.18-14.55,0-4.39,1.3-8.47,3.89-12.26,2.59-3.79,6.45-6.84,11.56-9.17,5.12-2.33,11.2-3.49,18.24-3.49,8.91,0,15.82,1.99,20.74,5.98,2.39,1.99,4.22,4.22,5.48,6.68,1.26,2.46,1.89,4.82,1.89,7.08,0,3.19-1.13,5.75-3.39,7.68-2.26,1.93-4.85,2.89-7.78,2.89s-5.22-.9-7.28-2.69c-2.06-1.8-3.09-4.22-3.09-7.28s.99-5.42,2.99-7.48c1.99-2.06,4.52-3.22,7.58-3.49-.67-1.72-2.36-3.22-5.08-4.48-2.73-1.26-6.08-1.89-10.07-1.89-6.91,0-12.5,2.09-16.75,6.28-4.26,4.19-6.38,10-6.38,17.44,0,8.91,3.39,16.48,10.17,22.73,4.65-.8,8.77-1.2,12.36-1.2,2.39,0,4.32.4,5.78,1.2,1.46.8,2.19,1.93,2.19,3.39,0,1.2-.5,2.13-1.5,2.79-1,.67-2.36,1-4.09,1-2.13,0-4.32-.4-6.58-1.2-2.26-.8-4.92-1.86-7.97-3.19-17.28,5.18-25.92,16.08-25.92,32.7,0,8.91,2.32,16.62,6.98,23.13,4.65,6.51,11.03,11.46,19.14,14.85,8.1,3.39,17.21,5.08,27.31,5.08,9.44,0,18.17-1.5,26.22-4.49,8.04-2.99,14.42-7.24,19.14-12.76,4.72-5.52,7.08-11.93,7.08-19.24,0-5.31-1.4-10.7-4.19-16.15-2.79-5.45-8.11-9.7-15.95-12.76-10.37,3.19-18.01,5.71-22.93,7.58-5.58,2.13-9.9,4.55-12.96,7.28-3.06,2.73-4.59,6.08-4.59,10.07,0,4.78,1.96,8.64,5.88,11.56,3.92,2.92,8.07,4.39,12.46,4.39,2.26,0,4.72-.4,7.38-1.2,2.66-.8,4.19-1.86,4.59-3.19-2.52-.53-4.72-1.59-6.58-3.19-1.86-1.59-2.79-3.92-2.79-6.98s1.03-5.71,3.09-7.58c2.06-1.86,4.69-2.79,7.88-2.79s5.75,1,7.67,2.99c1.93,1.99,2.89,4.59,2.89,7.78,0,5.32-2.46,9.51-7.38,12.56-4.92,3.06-10.37,4.59-16.35,4.59-6.52,0-12.26-1.96-17.25-5.88-4.98-3.92-7.48-9.74-7.48-17.44,0-6.78,2.29-12.53,6.88-17.25,4.59-4.72,11.46-8.67,20.63-11.86l14.16-4.19c7.98-2.26,14.62-4.25,19.94-5.98,5.31-1.72,10.17-3.59,14.55-5.58,6.38-2.92,10.83-5.91,13.36-8.97,2.52-3.06,3.79-6.45,3.79-10.17,0-5.58-2.29-10.33-6.88-14.25-4.59-3.92-10-5.88-16.25-5.88-3.32,0-5.32.6-5.98,1.8,1.73.8,3.09,2.09,4.09,3.89,1,1.79,1.5,3.56,1.5,5.28,0,2.79-1.1,5.12-3.29,6.98-2.19,1.86-4.82,2.79-7.88,2.79-2.79,0-5.25-.86-7.38-2.59-2.13-1.73-3.19-4.19-3.19-7.38,0-4.79,2.23-8.27,6.68-10.47,4.45-2.19,9.54-3.29,15.25-3.29,8.37,0,15.32,2.43,20.84,7.28Z"/>
    </g>
  </g>
</svg>